<svg width="50" height="36" viewBox="0 0 50 36" fill="none" xmlns="http://www.w3.org/2000/svg">
<path d="M25.1594 0.246826H25.4375C28.0063 0.256201 41.0219 0.349952 44.5313 1.2937C45.5922 1.58173 46.5589 2.14315 47.3349 2.92185C48.1108 3.70056 48.6688 4.66928 48.9531 5.7312C49.2688 6.9187 49.4906 8.49058 49.6406 10.1125L49.6719 10.4375L49.7406 11.25L49.7656 11.575C49.9688 14.4312 49.9938 17.1062 49.9969 17.6906V17.925C49.9938 18.5312 49.9656 21.3874 49.7406 24.3624L49.7156 24.6906L49.6875 25.0156C49.5313 26.8031 49.3 28.5781 48.9531 29.8843C48.6697 30.9467 48.112 31.9159 47.3359 32.6947C46.5598 33.4735 45.5926 34.0347 44.5313 34.3218C40.9063 35.2968 27.1281 35.3656 25.2188 35.3687H24.775C23.8094 35.3687 19.8156 35.35 15.6281 35.2062L15.0969 35.1875L14.825 35.1749L14.2906 35.1531L13.7563 35.1312C10.2875 34.9781 6.98438 34.7312 5.4625 34.3187C4.40153 34.0318 3.43458 33.4711 2.65851 32.6929C1.88245 31.9146 1.32452 30.9461 1.04063 29.8843C0.69375 28.5812 0.4625 26.8031 0.30625 25.0156L0.28125 24.6875L0.25625 24.3624C0.102024 22.2449 0.0165621 20.123 0 18L0 17.6156C0.00625 16.9437 0.03125 14.6218 0.2 12.0593L0.221875 11.7375L0.23125 11.575L0.25625 11.25L0.325 10.4375L0.35625 10.1125C0.50625 8.49058 0.728125 6.91558 1.04375 5.7312C1.32717 4.66885 1.88488 3.69967 2.66098 2.92083C3.43708 2.14199 4.40428 1.58086 5.46563 1.2937C6.9875 0.887452 10.2906 0.637451 13.7594 0.481201L14.2906 0.459326L14.8281 0.440577L15.0969 0.431202L15.6313 0.409327C18.6053 0.313622 21.5806 0.260491 24.5563 0.249951H25.1594V0.246826ZM20 10.2781V25.3343L32.9906 17.8093L20 10.2781Z" fill="#999999"/>
</svg>
