<svg width="42" height="42" viewBox="0 0 42 42" fill="none" xmlns="http://www.w3.org/2000/svg">
<path d="M21.0003 0.166992C9.50033 0.166992 0.166992 9.50033 0.166992 21.0003C0.166992 32.5003 9.50033 41.8337 21.0003 41.8337C32.5003 41.8337 41.8337 32.5003 41.8337 21.0003C41.8337 9.50033 32.5003 0.166992 21.0003 0.166992ZM30.667 14.3337C30.3545 17.6253 29.0003 25.6253 28.3128 29.3128C28.0212 30.8753 27.4378 31.3962 26.8962 31.4587C25.6878 31.5628 24.7712 30.667 23.6045 29.8962C21.7712 28.6878 20.7295 27.9378 18.9587 26.7712C16.8962 25.417 18.2295 24.667 19.417 23.4587C19.7295 23.1462 25.0628 18.292 25.167 17.8545C25.1815 17.7882 25.1795 17.7194 25.1614 17.6541C25.1432 17.5887 25.1094 17.5288 25.0628 17.4795C24.9378 17.3753 24.7712 17.417 24.6253 17.4378C24.4378 17.4795 21.5212 19.417 15.8337 23.2503C15.0003 23.8128 14.2503 24.1045 13.5837 24.0837C12.8337 24.0628 11.417 23.667 10.3545 23.3128C9.04199 22.8962 8.02116 22.667 8.10449 21.9378C8.14616 21.5628 8.66699 21.1878 9.64616 20.792C15.7295 18.1462 19.7712 16.3962 21.792 15.5628C27.5837 13.1462 28.7712 12.7295 29.5628 12.7295C29.7295 12.7295 30.1253 12.7712 30.3753 12.9795C30.5837 13.1462 30.6462 13.3753 30.667 13.542C30.6462 13.667 30.6878 14.042 30.667 14.3337Z" fill="#999999"/>
</svg>
