<svg width="18" height="14" viewBox="0 0 18 14" fill="none" xmlns="http://www.w3.org/2000/svg">
<path d="M7.56909 6.55994C7.56909 6.82194 7.35709 7.03394 7.09509 7.03394C6.83309 7.03394 6.62109 6.82194 6.62109 6.55994C6.62109 6.29794 6.83309 6.08594 7.09509 6.08594C7.35709 6.08594 7.56909 6.29794 7.56909 6.55994Z" fill="#21A038"/>
<path d="M9.64722 6.55994C9.64722 6.82194 9.43522 7.03394 9.17322 7.03394C8.91122 7.03394 8.69922 6.82194 8.69922 6.55994C8.69922 6.29794 8.91122 6.08594 9.17322 6.08594C9.43522 6.08594 9.64722 6.29794 9.64722 6.55994Z" fill="#21A038"/>
<path d="M11.7253 6.55994C11.7253 6.82194 11.5133 7.03394 11.2513 7.03394C10.9893 7.03394 10.7773 6.82194 10.7773 6.55994C10.7773 6.29794 10.9893 6.08594 11.2513 6.08594C11.5133 6.08594 11.7253 6.29794 11.7253 6.55994Z" fill="#21A038"/>
<path d="M7.09509 7.99512C6.83309 7.99512 6.62109 8.20712 6.62109 8.46912C6.62109 8.73112 6.83309 8.94312 7.09509 8.94312C7.35709 8.94312 7.56909 8.73112 7.56909 8.46912C7.56909 8.20712 7.35709 7.99512 7.09509 7.99512Z" fill="#21A038"/>
<path d="M9.17322 7.99512C8.91122 7.99512 8.69922 8.20712 8.69922 8.46912C8.69922 8.73112 8.91122 8.94312 9.17322 8.94312C9.43522 8.94312 9.64722 8.73112 9.64722 8.46912C9.64722 8.20712 9.43522 7.99512 9.17322 7.99512Z" fill="#21A038"/>
<path d="M11.2513 7.99512C10.9893 7.99512 10.7773 8.20712 10.7773 8.46912C10.7773 8.73112 10.9893 8.94312 11.2513 8.94312C11.5133 8.94312 11.7253 8.73112 11.7253 8.46912C11.7253 8.20712 11.5133 7.99512 11.2513 7.99512Z" fill="#21A038"/>
<path d="M7.56909 10.267C7.56909 10.529 7.35709 10.741 7.09509 10.741C6.83309 10.741 6.62109 10.529 6.62109 10.267C6.62109 10.005 6.83309 9.79297 7.09509 9.79297C7.35709 9.79297 7.56909 10.005 7.56909 10.267Z" fill="#21A038"/>
<path d="M9.64722 10.267C9.64722 10.529 9.43522 10.741 9.17322 10.741C8.91122 10.741 8.69922 10.529 8.69922 10.267C8.69922 10.005 8.91122 9.79297 9.17322 9.79297C9.43522 9.79297 9.64722 10.005 9.64722 10.267Z" fill="#21A038"/>
<path d="M11.7253 10.267C11.7253 10.529 11.5133 10.741 11.2513 10.741C10.9893 10.741 10.7773 10.529 10.7773 10.267C10.7773 10.005 10.9893 9.79297 11.2513 9.79297C11.5133 9.79297 11.7253 10.005 11.7253 10.267Z" fill="#21A038"/>
<path d="M17.331 3.6C17.329 3.595 17.328 3.59 17.326 3.586C16.633 1.49 14.693 0.003 12.405 0H5.665C3.378 0.003 1.439 1.491 0.759 3.55L0.749 3.587C0.747 3.591 0.746 3.595 0.744 3.6C0.589 4.068 0.5 4.606 0.5 5.166C0.5 5.538 0.802 5.84 1.174 5.84H4.173L2.793 8.137C2.286 8.968 1.985 9.974 1.985 11.049V11.691C1.986 12.583 2.709 13.307 3.602 13.308H14.887C15.779 13.307 16.503 12.584 16.504 11.691C16.504 11.688 16.504 11.685 16.504 11.681C16.504 10.207 16.04 8.842 15.25 7.723L15.264 7.745L13.936 5.84H16.909C17.277 5.84 17.575 5.541 17.576 5.173C17.576 4.611 17.486 4.071 17.32 3.565L17.33 3.601L17.331 3.6ZM5.665 0.561H12.405C14.318 0.563 15.958 1.729 16.656 3.389L16.667 3.419H12.764C12.32 2.911 11.671 2.593 10.948 2.593C10.947 2.593 10.946 2.593 10.945 2.593H7.043C6.322 2.596 5.676 2.914 5.235 3.417L5.233 3.42H1.407C2.114 1.73 3.753 0.564 5.664 0.562L5.665 0.561ZM1.061 5.165C1.063 4.743 1.121 4.336 1.229 3.949L1.221 3.981H4.863C4.745 4.222 4.665 4.504 4.639 4.8L4.638 4.809C4.621 4.983 4.571 5.141 4.495 5.284L4.498 5.277H1.173C1.111 5.277 1.06 5.227 1.06 5.164L1.061 5.165ZM15.943 11.69C15.942 12.272 15.47 12.744 14.888 12.745H3.603C3.021 12.744 2.549 12.272 2.548 11.69V11.048C2.548 10.079 2.819 9.173 3.288 8.402L3.275 8.425L4.862 5.782C4.927 5.736 4.97 5.664 4.978 5.582C5.095 5.372 5.174 5.124 5.198 4.862L5.199 4.855C5.284 3.902 6.077 3.16 7.044 3.155H10.947C11.936 3.155 12.746 3.932 12.796 4.909V4.913C12.806 5.112 12.872 5.294 12.979 5.445L12.977 5.442L14.806 8.065C15.519 9.073 15.945 10.327 15.945 11.681C15.945 11.684 15.945 11.687 15.945 11.691L15.943 11.69ZM16.91 5.277H13.545L13.436 5.12C13.389 5.054 13.36 4.973 13.355 4.885V4.884C13.338 4.553 13.257 4.245 13.124 3.966L13.13 3.981H16.853C16.954 4.338 17.013 4.748 17.015 5.171V5.172C17.015 5.23 16.968 5.277 16.91 5.277Z" fill="#21A038"/>
</svg>
