<svg width="165" height="101" viewBox="0 0 165 101" fill="none" xmlns="http://www.w3.org/2000/svg">
<g clip-path="url(#clip0_7029_120)">
<path d="M60.4167 50.5C60.4322 55.1178 61.0106 59.7165 62.1389 64.1944H80.1389V37.8611H61.8889C60.9287 42.006 60.4348 46.2453 60.4167 50.5Z" fill="#21A038"/>
<path d="M84.8611 64.2222H102.861C104.039 59.7411 104.664 55.1328 104.722 50.5C104.713 46.2464 104.229 42.0071 103.278 37.8611H84.8611V64.2222Z" fill="#21A038"/>
<path d="M124.5 36.0833C122.821 36.8539 121.046 37.3957 119.222 37.6944H118.611C116.706 37.9892 114.766 37.9892 112.861 37.6944H107.861C108.804 41.8987 109.298 46.1914 109.333 50.5C109.319 55.1096 108.788 59.7032 107.75 64.1944H118.861C118.213 65.9232 117.443 67.6034 116.556 69.2222H106.389C104.488 75.1744 101.677 80.7965 98.0556 85.8889C95.3835 87.0534 92.5878 87.9108 89.7222 88.4444C94.8541 82.8681 98.8038 76.3104 101.333 69.1667H84.8889V89.0278H80.1944V69.1389H63.6667C66.1928 76.2925 70.1427 82.8599 75.2778 88.4444C72.4713 87.9166 69.7322 87.0781 67.1111 85.9444C63.4773 80.8094 60.6658 75.1396 58.7778 69.1389H48.5556C47.6682 67.5201 46.8977 65.8398 46.25 64.1111H57.3611C56.32 59.648 55.7796 55.0828 55.75 50.5C55.7515 46.252 56.1984 42.0159 57.0833 37.8611H45.7222C46.3064 36.1375 47.0118 34.4573 47.8333 32.8333H58.4167C60.4025 26.2196 63.4821 19.9851 67.5278 14.3889C70.0933 13.3259 72.7662 12.5435 75.5 12.0556C69.9741 17.9862 65.8037 25.0475 63.2778 32.75H80.1944V11.6111H84.8889V32.8333H101.806V32.4722C98.0739 29.0171 95.741 24.3118 95.25 19.25C93.5892 16.7451 91.7315 14.3765 89.6944 12.1667C91.6381 12.5412 93.5509 13.0612 95.4167 13.7222C95.716 11.9381 96.2484 10.2011 97 8.55556C87.4619 5.25753 77.0874 5.29106 67.5708 8.65067C58.0542 12.0103 49.958 18.4974 44.6044 27.0526C39.2509 35.6078 36.9563 45.7255 38.0955 55.7532C39.2348 65.7808 43.7404 75.1259 50.8767 82.2622C58.0129 89.3984 67.358 93.9041 77.3857 95.0434C87.4134 96.1826 97.5311 93.888 106.086 88.5344C114.641 83.1809 121.129 75.0847 124.488 65.5681C127.848 56.0515 127.881 45.677 124.583 36.1389L124.5 36.0833Z" fill="#21A038"/>
<path fill-rule="evenodd" clip-rule="evenodd" d="M129.722 17.1667C129.722 24.8373 123.504 31.0556 115.833 31.0556C108.163 31.0556 101.944 24.8373 101.944 17.1667C101.944 9.49605 108.163 3.27778 115.833 3.27778C123.504 3.27778 129.722 9.49605 129.722 17.1667ZM118.282 13.7958L115.833 8.83333L113.384 13.7958L107.908 14.5915L111.871 18.4542L110.935 23.9085L115.833 21.3333L120.732 23.9085L119.796 18.4542L123.759 14.5915L118.282 13.7958Z" fill="#21A038"/>
</g>
<defs>
<clipPath id="clip0_7029_120">
<rect width="100" height="100" fill="white" transform="translate(32.5 0.5)"/>
</clipPath>
</defs>
</svg>
