<svg width="165" height="101" viewBox="0 0 165 101" fill="none" xmlns="http://www.w3.org/2000/svg">
<path d="M124.167 34.5083V34.8125C124.167 38.3958 124.167 40.1917 123.304 41.6583C122.442 43.125 120.871 43.9958 117.738 45.7417L114.433 47.575C116.708 39.875 117.471 31.6 117.75 24.525L117.792 23.6042L117.8 23.3875C120.513 24.3292 122.038 25.0333 122.988 26.35C124.167 27.9875 124.167 30.1625 124.167 34.5083ZM40.8333 34.5083V34.8125C40.8333 38.3958 40.8333 40.1917 41.6958 41.6583C42.5583 43.125 44.1292 43.9958 47.2625 45.7417L50.5708 47.575C48.2917 39.875 47.5292 31.6 47.25 24.525L47.2083 23.6042L47.2042 23.3875C44.4875 24.3292 42.9625 25.0333 42.0125 26.35C40.8333 27.9875 40.8333 30.1667 40.8333 34.5083Z" fill="#21A038"/>
<path fill-rule="evenodd" clip-rule="evenodd" d="M100.738 10.2792C94.7091 9.29112 88.6088 8.8075 82.5 8.83332C75.0708 8.83332 68.9458 9.48748 64.2625 10.2792C59.5167 11.0792 57.1458 11.4792 55.1625 13.9208C53.1833 16.3625 53.2875 19 53.4958 24.275C54.2167 42.3917 58.125 65.025 79.375 67.025V81.75H73.4167C72.4538 81.7506 71.5208 82.0846 70.7764 82.6954C70.032 83.3061 69.5221 84.1558 69.3333 85.1L68.5417 89.0417H57.5C56.6712 89.0417 55.8764 89.3709 55.2903 89.9569C54.7043 90.543 54.375 91.3379 54.375 92.1667C54.375 92.9955 54.7043 93.7903 55.2903 94.3764C55.8764 94.9624 56.6712 95.2917 57.5 95.2917H107.5C108.329 95.2917 109.124 94.9624 109.71 94.3764C110.296 93.7903 110.625 92.9955 110.625 92.1667C110.625 91.3379 110.296 90.543 109.71 89.9569C109.124 89.3709 108.329 89.0417 107.5 89.0417H96.4583L95.6667 85.1C95.478 84.1558 94.968 83.3061 94.2236 82.6954C93.4792 82.0846 92.5462 81.7506 91.5833 81.75H85.625V67.025C106.875 65.025 110.788 42.3958 111.504 24.275C111.713 19 111.821 16.3583 109.838 13.9208C107.854 11.4792 105.483 11.0792 100.738 10.2792ZM85.7792 24.6958C86.3503 24.9324 86.8384 25.333 87.1818 25.8469C87.5252 26.3609 87.7084 26.9652 87.7083 27.5833V44.25C87.7083 45.0788 87.3791 45.8736 86.7931 46.4597C86.207 47.0457 85.4121 47.375 84.5833 47.375C83.7545 47.375 82.9597 47.0457 82.3736 46.4597C81.7876 45.8736 81.4583 45.0788 81.4583 44.25V35.125L80.5417 36.0417C80.2556 36.3487 79.9106 36.5949 79.5273 36.7657C79.1439 36.9365 78.7301 37.0284 78.3105 37.0358C77.8909 37.0432 77.4741 36.966 77.085 36.8088C76.6959 36.6517 76.3424 36.4177 76.0457 36.121C75.7489 35.8242 75.515 35.4708 75.3578 35.0816C75.2007 34.6925 75.1235 34.2757 75.1309 33.8561C75.1383 33.4366 75.2301 33.0227 75.4009 32.6394C75.5717 32.2561 75.818 31.9111 76.125 31.625L82.375 25.375C82.8117 24.9379 83.3682 24.6402 83.9741 24.5193C84.58 24.3984 85.2082 24.4598 85.7792 24.6958Z" fill="#21A038"/>
</svg>
