<svg width="14" height="11" viewBox="0 0 14 11" fill="none" xmlns="http://www.w3.org/2000/svg">
<path d="M12.9999 0.333263L0.999943 0.333263C0.878448 0.333644 0.759358 0.367153 0.655492 0.430182C0.551625 0.493211 0.466915 0.583373 0.410479 0.690965C0.354043 0.798556 0.328018 0.919503 0.335207 1.04078C0.342396 1.16207 0.382525 1.27909 0.451276 1.37926L6.45128 10.0459C6.69994 10.4053 7.29861 10.4053 7.54794 10.0459L13.5479 1.37926C13.6174 1.2793 13.6581 1.16222 13.6657 1.04073C13.6733 0.91925 13.6474 0.798011 13.5909 0.690191C13.5344 0.582372 13.4495 0.492094 13.3453 0.429167C13.2411 0.366241 13.1217 0.333072 12.9999 0.333263Z" fill="white"/>
</svg>
