<svg width="42" height="42" viewBox="0 0 42 42" fill="none" xmlns="http://www.w3.org/2000/svg">
<path d="M27.4024 0.166992H14.6191C2.94408 0.166992 0.166992 2.94408 0.166992 14.5982V27.3816C0.166992 39.0545 2.92324 41.8337 14.5982 41.8337H27.3816C39.0545 41.8337 41.8337 39.0774 41.8337 27.4024V14.6191C41.8337 2.94408 39.0774 0.166992 27.4024 0.166992ZM33.8045 29.8962H30.7649C29.6149 29.8962 29.2691 28.9649 27.2066 26.9024C25.4066 25.167 24.6462 24.9503 24.1899 24.9503C23.5607 24.9503 23.3878 25.1232 23.3878 25.992V28.7253C23.3878 29.4649 23.1482 29.8982 21.217 29.8982C19.3427 29.7723 17.5252 29.2029 15.9141 28.2369C14.303 27.2708 12.9444 25.9359 11.9503 24.342C9.59026 21.4045 7.94812 17.9569 7.15449 14.2732C7.15449 13.817 7.32741 13.4045 8.19616 13.4045H11.2337C12.0149 13.4045 12.2962 13.7524 12.6024 14.5545C14.0774 18.8962 16.5941 22.6712 17.6149 22.6712C18.0066 22.6712 18.1774 22.4982 18.1774 21.5212V17.0503C18.0482 15.0107 16.9649 14.8378 16.9649 14.1003C16.9788 13.9058 17.068 13.7244 17.2134 13.5944C17.3589 13.4645 17.5492 13.3964 17.7441 13.4045H22.5191C23.1712 13.4045 23.3878 13.7295 23.3878 14.5107V20.5441C23.3878 21.1962 23.6691 21.4128 23.8649 21.4128C24.2566 21.4128 24.5587 21.1962 25.2753 20.4795C26.8146 18.6023 28.0723 16.5109 29.0087 14.2712C29.1044 14.0021 29.2855 13.7718 29.5243 13.6153C29.7632 13.4588 30.0467 13.3848 30.3316 13.4045H33.3712C34.2816 13.4045 34.4753 13.8607 34.2816 14.5107C33.1763 16.9866 31.8088 19.3369 30.2024 21.5212C29.8753 22.0212 29.7441 22.2816 30.2024 22.867C30.5045 23.3232 31.5691 24.2128 32.2857 25.0587C33.3272 26.0975 34.1921 27.2994 34.8462 28.617C35.1066 29.4628 34.6712 29.8962 33.8045 29.8962Z" fill="#999999"/>
</svg>
