<svg width="165" height="101" viewBox="0 0 165 101" fill="none" xmlns="http://www.w3.org/2000/svg">
<path d="M82.5 6.16406C79.1211 6.16406 75.7227 6.55078 73.1055 7.27344C70.4883 7.99414 68.8086 9.15625 68.457 9.88086C62.793 21.2031 62.4219 35.3828 62.4023 44.8359H102.598C102.578 35.3828 102.207 21.2031 96.543 9.88086C96.1914 9.15625 94.5117 7.99414 91.8945 7.27344C89.2773 6.55078 85.8789 6.16406 82.5 6.16406ZM41.875 33.1172V36.6328H51.25V33.1172H41.875ZM113.75 33.1172V36.6328H123.125V33.1172H113.75ZM46.3672 40.3438V53.7812L52.4609 57.8438C52.7734 56.6719 53.2812 55.5781 53.8867 54.582L49.8828 51.9063V40.3438H46.3672ZM115.117 40.3438V51.9063L111.113 54.582C111.719 55.5781 112.227 56.6719 112.539 57.8438L118.633 53.7812V40.3438H115.117ZM78.0078 48.3516V51.0859H86.9922V48.3516H78.0078ZM58.3008 54.6016C57.0898 55.9492 55.9766 57.8047 55.7227 59.3867C55.4297 61.0859 55.6836 62.3359 57.9492 63.5859H107.051C109.316 62.3359 109.57 61.0859 109.277 59.3867C109.023 57.8047 107.91 55.9492 106.699 54.6016H58.3008ZM80.7422 67.1016V73.3516L57.0703 79.2695L57.9297 82.668L80.7422 76.9648V82.5312C81.3086 82.4141 81.8945 82.3359 82.5 82.3359C83.1055 82.3359 83.6914 82.4141 84.2578 82.5312V76.9648L107.07 82.668L107.93 79.2695L84.2578 73.3516V67.1016H80.7422ZM57.5 85.8516C55 85.8516 53.0078 87.8438 53.0078 90.3438C53.0078 92.8438 55 94.8359 57.5 94.8359C60 94.8359 61.9922 92.8438 61.9922 90.3438C61.9922 87.8438 60 85.8516 57.5 85.8516ZM82.5 85.8516C80 85.8516 78.0078 87.8438 78.0078 90.3438C78.0078 92.8438 80 94.8359 82.5 94.8359C85 94.8359 86.9922 92.8438 86.9922 90.3438C86.9922 87.8438 85 85.8516 82.5 85.8516ZM107.5 85.8516C105 85.8516 103.008 87.8438 103.008 90.3438C103.008 92.8438 105 94.8359 107.5 94.8359C110 94.8359 111.992 92.8438 111.992 90.3438C111.992 87.8438 110 85.8516 107.5 85.8516Z" fill="#21A038"/>
</svg>
