<svg width="89" height="91" viewBox="0 0 89 91" fill="none" xmlns="http://www.w3.org/2000/svg">
<path d="M35.0209 9.47917C35.0209 4.24288 39.2637 0 44.5 0C49.7363 0 53.9792 4.24288 53.9792 9.47917C53.9792 14.7155 49.7363 18.9583 44.5 18.9583C39.2637 18.9583 35.0209 14.7155 35.0209 9.47917ZM14.8416 49.03L29.6405 27.6488C31.7714 24.5776 35.2635 22.75 38.9945 22.75H50.0055C53.7327 22.75 57.2287 24.5776 59.3558 27.645L74.1585 49.03L67.9212 53.3487L55.8713 35.9412V53.0833H33.1213V35.9374L21.0713 53.345L14.834 49.0262L14.8416 49.03ZM18.5916 17.6957L27.4375 13.2708L18.5916 8.84596L14.1667 0L9.74183 8.84596L0.895874 13.2708L9.74183 17.6957L14.1667 26.5417L18.5916 17.6957ZM80.5209 17.0625L76.7292 9.47917L72.9375 17.0625L65.3542 20.8542L72.9375 24.6458L76.7292 32.2292L80.5209 24.6458L88.1042 20.8542L80.5209 17.0625ZM14.1667 91H74.8334V83.4167H14.1667V91ZM29.3334 72.0417H59.6667V64.4583H29.3334V72.0417Z" fill="#21A038"/>
</svg>
