<svg width="89" height="91" fill="none" xmlns="http://www.w3.org/2000/svg"><path d="M35.02 9.48A9.478 9.478 0 0 1 44.5 0a9.478 9.478 0 0 1 9.48 9.48 9.478 9.478 0 0 1-9.48 9.478 9.478 9.478 0 0 1-9.48-9.479ZM14.843 49.03 29.64 27.649a11.381 11.381 0 0 1 9.355-4.899h11.01a11.38 11.38 0 0 1 9.35 4.895L74.16 49.03l-6.238 4.319-12.05-17.408v17.142h-22.75V35.937l-12.05 17.408-6.237-4.319.008.004Zm3.75-31.334 8.846-4.425-8.846-4.425L14.167 0 9.742 8.846.896 13.271l8.846 4.425 4.425 8.846 4.425-8.846Zm61.929-.634L76.729 9.48l-3.791 7.584-7.584 3.791 7.584 3.792 3.791 7.583 3.792-7.583 7.583-3.792-7.583-3.791ZM14.167 91h60.666v-7.583H14.167V91Zm15.166-18.958h30.334v-7.584H29.333v7.584Z" fill="#21A038"/></svg>