<svg width="73" height="91" fill="none" xmlns="http://www.w3.org/2000/svg"><mask id="a" fill="#fff"><path d="M0 71a2 2 0 0 1 2-2h27v22H0V71Z"/></mask><path d="M0 71a2 2 0 0 1 2-2h27v22H0V71Z" stroke="#21A038" stroke-width="14" mask="url(#a)"/><mask id="b" fill="#fff"><path d="M44 26a2 2 0 0 1 2-2h25a2 2 0 0 1 2 2v65H44V26Z"/></mask><path d="M44 26a2 2 0 0 1 2-2h25a2 2 0 0 1 2 2v65H44V26Z" stroke="#21A038" stroke-width="14" mask="url(#b)"/><mask id="c" fill="#fff"><path d="M22 51a2 2 0 0 1 2-2h27v42H22V51Z"/></mask><path d="M22 51a2 2 0 0 1 2-2h27v42H22V51Z" stroke="#21A038" stroke-width="14" mask="url(#c)"/><path d="m58.5 0 3.341 7.159L69 10.5l-7.159 3.341L58.5 21l-3.341-7.159L48 10.5l7.159-3.341L58.5 0ZM10 51l2.475 4.848L17 58.5l-4.525 2.652L10 66l-2.475-4.848L3 58.5l4.525-2.652L10 51ZM31 28l2.864 6.136L40 37l-6.136 2.864L31 46l-2.864-6.136L22 37l6.136-2.864L31 28Z" fill="#21A038"/></svg>