<svg width="159" height="25" fill="none" xmlns="http://www.w3.org/2000/svg"><path d="M42.245 10.858h-3.59l-.7 2.41h-2.843L38.8 2.296h3.414l3.688 10.972h-2.965l-.692-2.41Zm-3.05-2.008h2.502L40.48 4.622h-.06L39.194 8.85ZM49.537 1.748h-2.692v11.52h2.692V1.748ZM56.252 4.691c1.07 0 1.901.38 2.494 1.14.598.761.897 1.828.897 3.202 0 1.374-.296 2.44-.89 3.202-.587.765-1.411 1.147-2.47 1.147-1.273 0-2.138-.52-2.594-1.558h-.053v4.022h-2.692V4.806h2.677v1.482h.053c.213-.502.545-.892.997-1.17.45-.285.978-.427 1.581-.427Zm-.996 6.57c.497 0 .892-.2 1.186-.6.294-.406.44-.949.44-1.628 0-.674-.146-1.212-.44-1.612-.3-.405-.694-.609-1.186-.609s-.887.204-1.186.61c-.295.404-.441.944-.441 1.619 0 .679.146 1.219.44 1.62.295.4.69.6 1.187.6ZM60.778 1.748h2.638v4.646h.053c.456-1.156 1.366-1.733 2.73-1.733.943 0 1.683.281 2.22.844.538.567.806 1.35.806 2.35v5.413h-2.7V8.432c0-.486-.131-.871-.395-1.156-.268-.279-.633-.418-1.094-.418-.462 0-.837.152-1.126.456-.294.31-.44.705-.44 1.187v4.767h-2.692V1.748ZM74.016 11.512c.447 0 .822-.12 1.126-.357.319-.243.48-.555.48-.935v-.586l-1.56.107c-.79.055-1.186.354-1.186.897a.76.76 0 0 0 .311.639c.204.157.48.235.83.235Zm-.95 1.87c-.806 0-1.48-.237-2.023-.714-.557-.481-.836-1.098-.836-1.848 0-1.586 1.143-2.45 3.43-2.593l1.984-.122V7.62c0-.34-.114-.603-.343-.79-.222-.183-.527-.274-.912-.274-.36 0-.659.086-.897.258a.963.963 0 0 0-.403.654H70.64c.036-.857.4-1.544 1.095-2.06.7-.523 1.62-.784 2.76-.784 1.126 0 2.033.261 2.723.783.69.527 1.034 1.217 1.034 2.069v5.794h-2.616v-1.217h-.053c-.223.416-.57.743-1.042.981-.456.233-.948.35-1.475.35ZM82.748 4.806h2.616v1.627h.053c.167-.543.469-.974.904-1.293.437-.32.941-.479 1.514-.479.629 0 1.148.155 1.559.464.41.314.676.758.798 1.33h.053c.168-.547.487-.983.958-1.308.477-.324 1.03-.486 1.658-.486.826 0 1.495.264 2.007.79.512.533.769 1.228.769 2.084v5.734h-2.693v-5.05c0-.912-.405-1.368-1.216-1.368-.38 0-.682.127-.905.38-.228.254-.342.593-.342 1.019v5.019h-2.57V8.182c0-.426-.107-.755-.32-.989-.208-.228-.506-.342-.897-.342-.375 0-.68.13-.912.388-.228.258-.343.6-.343 1.026v5.004h-2.691V4.806ZM100.427 11.512c.446 0 .821-.12 1.126-.357.319-.243.479-.555.479-.935v-.586l-1.559.107c-.791.055-1.186.354-1.186.897 0 .269.104.482.311.639.203.157.48.235.829.235Zm-.95 1.87c-.806 0-1.48-.237-2.023-.714-.557-.481-.836-1.098-.836-1.848 0-1.586 1.143-2.45 3.429-2.593l1.985-.122V7.62c0-.34-.114-.603-.342-.79-.223-.183-.528-.274-.913-.274-.36 0-.659.086-.898.258a.967.967 0 0 0-.402.654H97.05c.035-.857.4-1.544 1.095-2.06.7-.523 1.62-.784 2.761-.784 1.125 0 2.032.261 2.722.783.689.527 1.034 1.217 1.034 2.069v5.794h-2.616v-1.217h-.053c-.224.416-.571.743-1.042.981-.456.233-.948.35-1.475.35ZM106.009 4.805h2.616v1.59h.053c.309-1.136.976-1.704 2-1.704.243 0 .472.035.685.107v2.311c-.233-.101-.522-.152-.867-.152-.578 0-1.022.157-1.331.472-.309.32-.464.775-.464 1.368v4.471h-2.692V4.806ZM117.492 4.805h3.012l-3.042 3.627 3.216 4.836h-3.102l-2.106-3.224-.517.6v2.624h-2.692V1.748h2.692v6.296h.053l2.486-3.239Z" fill="#fff"/><path d="M124.77 6.54c-.431 0-.793.144-1.088.433-.294.289-.459.659-.494 1.11h3.148c-.025-.466-.18-.841-.463-1.125-.29-.279-.657-.418-1.103-.418Zm4.061 4.067a2.998 2.998 0 0 1-1.278 2.069c-.725.517-1.635.775-2.73.775-1.338 0-2.388-.387-3.148-1.163-.761-.776-1.141-1.845-1.141-3.21 0-1.363.378-2.448 1.133-3.253.756-.801 1.777-1.202 3.065-1.202 1.262 0 2.271.383 3.026 1.148.751.771 1.126 1.8 1.126 3.088v.767h-5.726v.168c0 .517.157.935.471 1.255.315.324.725.486 1.232.486.806 0 1.318-.309 1.536-.928h2.434ZM133.333 2.935v1.87h1.528v1.992h-1.528v3.612c0 .593.327.89.981.89.187 0 .37-.013.547-.038v1.916c-.309.071-.704.106-1.186.106-1.085 0-1.863-.182-2.334-.547-.467-.36-.7-.956-.7-1.787V6.797h-1.133V4.805h1.133v-1.87h2.692ZM136.041 4.806h2.699v8.463h-2.699V4.806Zm1.345-.7a1.35 1.35 0 0 1-.973-.38 1.242 1.242 0 0 1-.411-.95c0-.376.137-.693.411-.951.263-.254.588-.38.973-.38s.712.126.981.38c.274.258.411.575.411.95 0 .38-.137.697-.411.951-.264.253-.591.38-.981.38ZM140.11 4.806h2.615v1.589h.053c.467-1.156 1.367-1.734 2.7-1.734.943 0 1.683.281 2.22.844.532.563.799 1.343.799 2.342v5.422h-2.7V8.425c0-.491-.126-.875-.38-1.148-.258-.28-.618-.419-1.08-.419-.456 0-.826.153-1.11.457-.284.304-.426.697-.426 1.179v4.775h-2.691V4.806ZM153.927 11.185c.507 0 .905-.188 1.193-.563.295-.38.442-.91.442-1.59 0-.678-.147-1.218-.442-1.619-.293-.4-.692-.6-1.193-.6-.502 0-.898.198-1.186.593-.294.4-.442.94-.442 1.62 0 .684.145 1.216.434 1.596.289.376.687.563 1.194.563Zm-.046 5.224c-1.196 0-2.167-.233-2.912-.7-.756-.47-1.151-1.1-1.186-1.885h2.615c.056.238.228.43.518.577.283.143.62.213 1.011.213.491 0 .885-.116 1.178-.35.294-.238.442-.56.442-.965v-1.605h-.054c-.172.452-.489.812-.95 1.08-.467.274-1.009.41-1.627.41-1.019 0-1.833-.367-2.441-1.102-.619-.75-.928-1.774-.928-3.072 0-1.343.304-2.398.913-3.163.608-.77 1.442-1.156 2.501-1.156.598 0 1.128.147 1.589.441.447.289.768.675.966 1.156h.046V4.805h2.684v8.296c0 1.004-.398 1.805-1.194 2.403-.796.603-1.853.905-3.171.905ZM38.731 20.332H36.35l-.63 1.737h-.569l2.122-5.67h.534l2.119 5.67h-.566l-.629-1.737Zm-2.22-.464h2.06l-1.019-2.806h-.023l-1.018 2.806ZM43.867 22.07h-.688l-2.074-2.072h-.024v2.071h-.515v-4.232h.515v1.905h.024l2.023-1.905h.66l-2.157 2.012 2.236 2.22ZM47.482 18.273h-1.446v3.796h-.514v-3.796h-1.447v-.436h3.407v.436ZM48.473 23.543c-.09 0-.176-.01-.26-.032v-.444c.079.018.164.028.256.028a.655.655 0 0 0 .467-.17c.118-.11.225-.298.319-.565l.094-.263-1.591-4.26h.557l1.297 3.706h.012l1.3-3.706h.55l-1.65 4.436c-.183.498-.369.834-.558 1.006-.185.176-.45.264-.793.264ZM53.365 21.66c.38 0 .697-.114.951-.343.257-.224.385-.505.385-.84v-.468l-1.238.087c-.726.047-1.088.313-1.088.797 0 .228.092.413.275.555.183.14.422.212.715.212Zm-.102.455c-.422 0-.764-.112-1.026-.337a1.123 1.123 0 0 1-.393-.889c0-.736.519-1.14 1.556-1.214l1.301-.087v-.36c0-.31-.093-.55-.279-.72-.188-.17-.453-.255-.794-.255-.296 0-.54.07-.734.212a.925.925 0 0 0-.362.593h-.5c.022-.372.183-.676.484-.912.299-.238.67-.357 1.116-.357.485 0 .871.125 1.16.377.285.252.428.591.428 1.018v2.884h-.495v-.81h-.012a1.369 1.369 0 0 1-.566.622c-.264.157-.56.235-.884.235ZM57.146 20.25c-.048.608-.145 1.053-.291 1.336-.181.346-.46.519-.837.519a.675.675 0 0 1-.236-.04v-.475a.665.665 0 0 0 .212.03c.207 0 .364-.127.471-.384.092-.22.155-.555.19-1.006.06-.629.114-1.426.164-2.393h2.708v4.232h-.515v-3.796h-1.725a40.67 40.67 0 0 1-.141 1.976ZM61.051 19.715v1.918h.916c.31 0 .557-.088.743-.263.184-.174.275-.405.275-.696 0-.293-.093-.526-.28-.7-.182-.172-.428-.259-.738-.259h-.916Zm-.514-1.878h.514v1.438h.916c.466 0 .838.126 1.116.378.28.253.42.594.42 1.02 0 .425-.14.765-.42 1.02-.278.25-.65.376-1.116.376h-1.43v-4.232ZM67.174 20.089h-2.373v1.98h-.515v-4.232h.515v1.816h2.373v-1.816h.515v4.232h-.515v-1.98ZM72.298 17.837h.515v4.232h-.515v-4.232Zm-3.08 1.878v1.918h.915c.31 0 .557-.088.743-.263.183-.174.274-.405.274-.696 0-.293-.092-.526-.278-.7-.183-.172-.43-.259-.74-.259h-.915Zm-.515-1.878h.514v1.438h.916c.466 0 .838.126 1.116.378.28.253.42.594.42 1.02 0 .425-.14.765-.42 1.02-.278.25-.65.376-1.116.376h-1.43v-4.232ZM74.81 16.057c0 .235.07.427.212.574a.76.76 0 0 0 .573.223c.239 0 .429-.075.57-.223a.794.794 0 0 0 .212-.574h.397c0 .337-.108.609-.322.813-.217.207-.503.31-.857.31-.356 0-.641-.103-.856-.31-.218-.204-.327-.476-.327-.813h.397Zm-.983 6.012v-4.232h.515v3.422h.023l2.405-3.422h.515v4.232h-.515v-3.423h-.027l-2.401 3.423h-.515ZM80.08 22.07v-4.233h.616l1.674 3.544h.023l1.67-3.544h.598v4.232h-.518v-3.29h-.024l-1.549 3.208h-.404l-1.548-3.207h-.024v3.29h-.515ZM87.023 21.66c.38 0 .697-.114.951-.343.257-.224.385-.505.385-.84v-.468l-1.238.087c-.725.047-1.088.313-1.088.797 0 .228.091.413.275.555.183.14.421.212.715.212Zm-.102.455c-.422 0-.764-.112-1.026-.337a1.12 1.12 0 0 1-.393-.889c0-.736.52-1.14 1.556-1.214l1.301-.087v-.36c0-.31-.093-.55-.279-.72-.189-.17-.453-.255-.794-.255-.296 0-.54.07-.735.212a.922.922 0 0 0-.361.593h-.499c.02-.372.182-.676.483-.912.3-.238.671-.357 1.116-.357.485 0 .871.125 1.16.377.285.252.428.591.428 1.018v2.884h-.495v-.81h-.012a1.369 1.369 0 0 1-.566.622c-.265.157-.56.235-.884.235ZM91.81 17.789c.534 0 .968.2 1.304.597.333.399.499.92.499 1.564 0 .645-.166 1.168-.499 1.568-.33.398-.762.597-1.297.597-.332 0-.629-.085-.888-.255a1.458 1.458 0 0 1-.558-.664h-.012v2.26h-.518v-5.62h.49v.876h.013a1.43 1.43 0 0 1 .565-.664c.27-.173.57-.26.9-.26Zm-.091 3.859c.409 0 .739-.155.99-.464.249-.312.373-.722.373-1.23s-.124-.92-.373-1.234a1.21 1.21 0 0 0-.99-.467 1.2 1.2 0 0 0-.983.471c-.254.317-.38.726-.38 1.226 0 .503.127.912.38 1.226a1.2 1.2 0 0 0 .983.472ZM97.716 22.07h-.688l-2.075-2.072h-.023v2.071h-.516v-4.232h.516v1.905h.023l2.024-1.905h.66L95.48 19.85l2.236 2.22ZM99.885 18.249c-.38 0-.692.13-.935.389-.247.257-.382.595-.406 1.017h2.633c-.005-.422-.125-.76-.361-1.017-.238-.26-.549-.39-.931-.39Zm1.78 2.621a1.355 1.355 0 0 1-.574.892c-.322.236-.711.353-1.167.353-.587 0-1.053-.192-1.399-.577-.346-.388-.519-.913-.519-1.576 0-.657.172-1.184.515-1.58.346-.395.803-.593 1.372-.593.555 0 .999.186 1.332.558.33.374.495.876.495 1.505v.228h-3.175v.027c0 .477.127.854.38 1.132.253.278.59.417 1.011.417.312 0 .578-.073.798-.22a.955.955 0 0 0 .416-.566h.515ZM105.5 18.273h-1.446v3.796h-.515v-3.796h-1.446v-.436h3.407v.436ZM106.164 22.07v-4.233h.515v3.423h.024l2.404-3.423h.516v4.232h-.516v-3.422h-.027l-2.401 3.422h-.515ZM113.521 20.089h-2.374v1.98h-.515v-4.232h.515v1.816h2.374v-1.816h.514v4.232h-.514v-1.98ZM115.564 18.273v3.796h-.515v-4.232h2.684v.436h-2.169ZM120.276 22.07v-4.233h.515v3.423h.024l2.404-3.423h.515v4.232h-.515v-3.422h-.027l-2.401 3.422h-.515ZM129.378 18.273h-2.335v3.796h-.515v-4.232h3.364v4.232h-.514v-3.796ZM132.875 17.789c.535 0 .969.2 1.305.597.332.399.499.92.499 1.564 0 .645-.167 1.168-.499 1.568-.33.398-.763.597-1.297.597-.333 0-.629-.085-.889-.255a1.46 1.46 0 0 1-.557-.664h-.012v2.26h-.519v-5.62h.492v.876h.011c.113-.272.302-.494.566-.664.27-.173.57-.26.9-.26Zm-.09 3.859c.408 0 .738-.155.99-.464.249-.312.373-.722.373-1.23s-.124-.92-.373-1.234a1.211 1.211 0 0 0-.99-.467 1.2 1.2 0 0 0-.983.471c-.254.317-.381.726-.381 1.226 0 .503.127.912.381 1.226a1.2 1.2 0 0 0 .983.472ZM137.19 22.115c-.582 0-1.047-.196-1.396-.59-.35-.39-.526-.915-.526-1.575 0-.657.176-1.183.526-1.575.349-.391.814-.586 1.396-.586.584 0 1.05.195 1.399.585.351.393.526.919.526 1.576 0 .658-.175 1.183-.526 1.576-.349.393-.815.59-1.399.59Zm0-.467c.432 0 .772-.151 1.021-.452.25-.304.374-.72.374-1.246s-.124-.942-.374-1.245c-.249-.302-.589-.452-1.021-.452-.43 0-.769.15-1.018.452-.249.303-.373.719-.373 1.245 0 .527.124.942.373 1.246.249.3.588.452 1.018.452ZM142.809 18.273h-1.839c-.039.75-.088 1.408-.145 1.976-.055.664-.182 1.117-.382 1.36v.024h2.366v-3.36Zm-3.325 4.916v-1.556h.342c.284-.183.455-.65.515-1.403.079-.97.134-1.767.165-2.393h2.822v3.796h.683v1.556h-.487v-1.12h-3.552v1.12h-.488ZM146 21.66c.38 0 .697-.114.951-.343.257-.224.385-.505.385-.84v-.468l-1.238.087c-.726.047-1.088.313-1.088.797a.67.67 0 0 0 .275.555c.183.14.422.212.715.212Zm-.102.455c-.422 0-.764-.112-1.026-.337a1.122 1.122 0 0 1-.393-.889c0-.736.519-1.14 1.557-1.214l1.3-.087v-.36c0-.31-.093-.55-.279-.72-.189-.17-.453-.255-.794-.255-.296 0-.541.07-.734.212a.922.922 0 0 0-.362.593h-.499c.021-.372.182-.676.483-.912.299-.238.671-.357 1.116-.357.485 0 .871.125 1.159.377.286.252.429.591.429 1.018v2.884h-.496v-.81h-.011a1.369 1.369 0 0 1-.566.622c-.265.157-.56.235-.884.235ZM154.123 22.07h-.684l-1.898-2.072h-.024v2.071h-.514V20h-.024l-1.898 2.07h-.668l2.047-2.208-1.984-2.024h.656l1.847 1.905h.024v-1.905h.514v1.905h.024l1.847-1.905h.652l-1.977 2.012 2.06 2.22ZM154.732 22.07v-4.233h.515v3.423h.023l2.405-3.423h.515v4.232h-.515v-3.422h-.027l-2.401 3.422h-.515Z" fill="#fff"/><path fill-rule="evenodd" clip-rule="evenodd" d="m20.078 14.893.062-.245 1.777 5.454-.215.306v-.03l-.061.122c-5.117 6.802-15.963 5.484-19.976-1.44-4.259-7.353.061-17.066 8.395-18.812a15.053 15.053 0 0 1 2.635-.245c3.952 0 8.119 1.716 10.233 5.178L24.582.677h5.147l-3.89 10.815 2.512 6.986c.275.704 1.041 1.103 1.746.919l.214-.061 1.38 4.626-1.655.429c-2.36.582-4.78-.613-5.668-2.88a8.22 8.22 0 0 1-.582-1.287l-.92-2.42-.06-.092v-.03l-2.054-6.22c-1.133-3.432-3.247-5.086-4.932-5.76-.92-.43-1.961-.644-3.064-.644-4.259 0-7.69 3.401-7.69 7.568s3.431 7.568 7.69 7.568c3.431 0 6.342-2.237 7.322-5.3Z" fill="url(#a)"/><defs><linearGradient id="a" x1=".041" y1=".352" x2="30.679" y2=".352" gradientUnits="userSpaceOnUse"><stop stop-color="#7A5FFF"/><stop offset="1" stop-color="#00E824"/></linearGradient></defs></svg>