<svg width="159" height="25" viewBox="0 0 159 25" fill="none" xmlns="http://www.w3.org/2000/svg">
<g clip-path="url(#clip0_1_89)">
<path d="M42.2445 10.8577H38.6551L37.9556 13.2681H35.112L38.7995 2.29565H42.2138L45.902 13.2681H42.9365L42.2445 10.8577ZM39.1952 8.84987H41.6969L40.4804 4.62229H40.4192L39.1952 8.84987Z" fill="white"/>
<path d="M49.5369 1.74829H46.8452V13.2683H49.5369V1.74829Z" fill="white"/>
<path d="M56.2521 4.69141C57.3217 4.69141 58.153 5.07147 58.7463 5.8316C59.3445 6.59235 59.6433 7.6594 59.6433 9.03275C59.6433 10.4067 59.347 11.4738 58.7538 12.2345C58.1656 12.9997 57.3417 13.3822 56.2821 13.3822C55.01 13.3822 54.1455 12.8628 53.6892 11.8238H53.636V15.8464H50.9443V4.80518H53.621V6.28792H53.6742C53.8873 5.78596 54.2193 5.3959 54.6706 5.1171C55.1213 4.83331 55.6489 4.69141 56.2521 4.69141ZM55.2557 11.2613C55.7526 11.2613 56.1483 11.0606 56.4421 10.6605C56.7359 10.2548 56.8828 9.71224 56.8828 9.03275C56.8828 8.35889 56.7359 7.8213 56.4421 7.42124C56.1427 7.01554 55.7476 6.81238 55.2557 6.81238C54.7644 6.81238 54.3687 7.01554 54.0699 7.42124C53.7754 7.8263 53.6285 8.36639 53.6285 9.04088C53.6285 9.71974 53.7754 10.2598 54.0699 10.6605C54.3637 11.0606 54.7594 11.2613 55.2557 11.2613Z" fill="white"/>
<path d="M60.7775 1.74829H63.416V6.39407H63.4692C63.9255 5.23825 64.835 4.66065 66.199 4.66065C67.1417 4.66065 67.8818 4.94195 68.4194 5.50454C68.957 6.07214 69.2251 6.85539 69.2251 7.85431V13.2683H66.5259V8.4319C66.5259 7.94557 66.394 7.56051 66.1303 7.27609C65.8621 6.99729 65.497 6.85789 65.0357 6.85789C64.5744 6.85789 64.1993 7.01042 63.9099 7.31422C63.6161 7.62364 63.4692 8.01934 63.4692 8.50067V13.2683H60.7775V1.74829Z" fill="white"/>
<path d="M74.0164 11.5123C74.4627 11.5123 74.8378 11.3929 75.1416 11.1548C75.461 10.9116 75.6211 10.5997 75.6211 10.2196V9.63388L74.0621 9.74078C73.2713 9.79641 72.8756 10.0952 72.8756 10.6378C72.8756 10.9066 72.98 11.1198 73.1875 11.2767C73.3907 11.4336 73.667 11.5123 74.0164 11.5123ZM73.0663 13.3826C72.2599 13.3826 71.586 13.1445 71.0434 12.6681C70.4858 12.1868 70.207 11.5705 70.207 10.8203C70.207 9.23382 71.3497 8.3693 73.6364 8.2274L75.6211 8.1055V7.61917C75.6211 7.27974 75.5067 7.01595 75.2785 6.82841C75.056 6.64588 74.7515 6.55462 74.3665 6.55462C74.0064 6.55462 73.707 6.64088 73.4688 6.81279C73.2407 6.98031 73.1063 7.19848 73.0663 7.46727H70.6402C70.6759 6.61025 71.0409 5.92326 71.7354 5.4063C72.4349 4.88434 73.3551 4.62305 74.4953 4.62305C75.6211 4.62305 76.5281 4.88434 77.2176 5.4063C77.9071 5.93327 78.2521 6.62276 78.2521 7.47477V13.2689H75.6361V12.0524H75.5829C75.3598 12.4681 75.0128 12.795 74.5409 13.0332C74.0852 13.2664 73.5932 13.3826 73.0663 13.3826Z" fill="white"/>
<path d="M82.7475 4.80553H85.3636V6.43268H85.4167C85.5836 5.89009 85.8856 5.45939 86.3213 5.13996C86.7576 4.82053 87.262 4.66113 87.8346 4.66113C88.4635 4.66113 88.9829 4.81553 89.3936 5.12496C89.8043 5.43939 90.07 5.88259 90.1919 6.45581H90.245C90.4126 5.90822 90.732 5.47189 91.2033 5.14746C91.6796 4.82303 92.2322 4.66113 92.8611 4.66113C93.6875 4.66113 94.3564 4.92493 94.8683 5.45189C95.3803 5.98448 95.6366 6.67897 95.6366 7.53536V13.2688H92.9442V8.21985C92.9442 7.3072 92.5392 6.85087 91.7278 6.85087C91.3477 6.85087 91.0458 6.97777 90.8233 7.23094C90.5951 7.48473 90.4807 7.82416 90.4807 8.24986V13.2688H87.9109V8.18172C87.9109 7.75602 87.804 7.42659 87.5915 7.19343C87.3833 6.96527 87.0845 6.85087 86.6938 6.85087C86.3187 6.85087 86.0149 6.98027 85.7818 7.23906C85.5536 7.49723 85.4392 7.83979 85.4392 8.26548V13.2688H82.7475V4.80553Z" fill="white"/>
<path d="M100.427 11.5123C100.873 11.5123 101.248 11.3929 101.553 11.1548C101.872 10.9116 102.032 10.5997 102.032 10.2196V9.63388L100.473 9.74078C99.6819 9.79641 99.2869 10.0952 99.2869 10.6378C99.2869 10.9066 99.3906 11.1198 99.5982 11.2767C99.8013 11.4336 100.078 11.5123 100.427 11.5123ZM99.4769 13.3826C98.6705 13.3826 97.9967 13.1445 97.4541 12.6681C96.8965 12.1868 96.6177 11.5705 96.6177 10.8203C96.6177 9.23382 97.761 8.3693 100.047 8.2274L102.032 8.1055V7.61917C102.032 7.27974 101.918 7.01595 101.69 6.82841C101.467 6.64588 101.162 6.55462 100.777 6.55462C100.417 6.55462 100.118 6.64088 99.8795 6.81279C99.6519 6.98031 99.5175 7.19848 99.4769 7.46727H97.0509C97.0865 6.61025 97.4516 5.92326 98.1461 5.4063C98.8456 4.88434 99.7657 4.62305 100.907 4.62305C102.032 4.62305 102.939 4.88434 103.629 5.4063C104.318 5.93327 104.663 6.62276 104.663 7.47477V13.2689H102.047V12.0524H101.994C101.77 12.4681 101.423 12.795 100.952 13.0332C100.496 13.2664 100.004 13.3826 99.4769 13.3826Z" fill="white"/>
<path d="M106.009 4.80518H108.625V6.39419H108.678C108.987 5.259 109.654 4.69141 110.678 4.69141C110.921 4.69141 111.15 4.72641 111.363 4.79767V7.10931C111.13 7.00804 110.841 6.95741 110.496 6.95741C109.918 6.95741 109.474 7.11431 109.165 7.42874C108.856 7.74817 108.701 8.20449 108.701 8.79709V13.2685H106.009V4.80518Z" fill="white"/>
<path d="M117.492 4.80505H120.504L117.462 8.4319L120.678 13.2683H117.576L115.47 10.044L114.953 10.6448V13.2683H112.261V1.74829H114.953V8.04434H115.006L117.492 4.80505Z" fill="white"/>
<path d="M124.77 6.53962C124.339 6.53962 123.977 6.68402 123.682 6.97281C123.388 7.26161 123.223 7.63167 123.188 8.083H126.336C126.311 7.61667 126.156 7.24161 125.873 6.95781C125.583 6.67901 125.216 6.53962 124.77 6.53962ZM128.831 10.6072C128.699 11.4742 128.273 12.1637 127.553 12.6756C126.828 13.1926 125.918 13.4514 124.823 13.4514C123.485 13.4514 122.435 13.0638 121.675 12.2881C120.914 11.5123 120.534 10.4428 120.534 9.07879C120.534 7.71544 120.912 6.63026 121.667 5.8245C122.423 5.02374 123.444 4.62305 124.732 4.62305C125.994 4.62305 127.003 5.00561 127.758 5.77136C128.509 6.54212 128.884 7.57104 128.884 8.85875V9.62638H123.158V9.79391C123.158 10.3109 123.315 10.7291 123.629 11.0485C123.944 11.3729 124.354 11.5354 124.861 11.5354C125.667 11.5354 126.179 11.226 126.397 10.6072H128.831Z" fill="white"/>
<path d="M133.333 2.93457V4.80488H134.861V6.79709H133.333V10.4089C133.333 11.0022 133.66 11.2985 134.314 11.2985C134.501 11.2985 134.684 11.286 134.861 11.261V13.1769C134.552 13.2482 134.157 13.2832 133.675 13.2832C132.59 13.2832 131.812 13.1006 131.341 12.7356C130.874 12.3761 130.641 11.7804 130.641 10.949V6.79709H129.508V4.80488H130.641V2.93457H133.333Z" fill="white"/>
<path d="M136.041 4.80552H138.74V13.2688H136.041V4.80552ZM137.386 4.10603C137.001 4.10603 136.676 3.97913 136.413 3.72597C136.139 3.47217 136.002 3.15525 136.002 2.77518C136.002 2.40012 136.139 2.08319 136.413 1.82502C136.676 1.57123 137.001 1.44434 137.386 1.44434C137.771 1.44434 138.098 1.57123 138.367 1.82502C138.641 2.08319 138.778 2.40012 138.778 2.77518C138.778 3.15525 138.641 3.47217 138.367 3.72597C138.103 3.97913 137.776 4.10603 137.386 4.10603Z" fill="white"/>
<path d="M140.11 4.80553H142.725V6.39455H142.778C143.245 5.23873 144.145 4.66113 145.478 4.66113C146.421 4.66113 147.161 4.94243 147.698 5.50502C148.23 6.06762 148.497 6.84837 148.497 7.84729V13.2688H145.797V8.42489C145.797 7.93355 145.671 7.55036 145.417 7.27657C145.159 6.99777 144.799 6.85837 144.337 6.85837C143.881 6.85837 143.511 7.0109 143.227 7.3147C142.943 7.61913 142.801 8.01169 142.801 8.49365V13.2688H140.11V4.80553Z" fill="white"/>
<path d="M153.927 11.185C154.434 11.185 154.832 10.9975 155.12 10.6224C155.415 10.2423 155.562 9.71224 155.562 9.03275C155.562 8.35389 155.415 7.8138 155.12 7.41311C154.827 7.01304 154.428 6.81238 153.927 6.81238C153.425 6.81238 153.029 7.01054 152.741 7.40561C152.447 7.8063 152.299 8.34639 152.299 9.02525C152.299 9.70974 152.444 10.2423 152.733 10.6224C153.022 10.9975 153.42 11.185 153.927 11.185ZM153.881 16.409C152.685 16.409 151.714 16.1758 150.969 15.7095C150.213 15.2382 149.818 14.6093 149.783 13.8236H152.398C152.454 14.0617 152.626 14.2542 152.916 14.4011C153.199 14.5437 153.536 14.6143 153.927 14.6143C154.418 14.6143 154.812 14.498 155.105 14.2649C155.399 14.0261 155.547 13.7042 155.547 13.2991V11.6944H155.493C155.321 12.1458 155.004 12.5058 154.543 12.774C154.076 13.0478 153.534 13.1847 152.916 13.1847C151.897 13.1847 151.083 12.8171 150.475 12.082C149.856 11.3319 149.547 10.308 149.547 9.01025C149.547 7.6669 149.851 6.61235 150.46 5.84722C151.068 5.07647 151.902 4.69141 152.961 4.69141C153.559 4.69141 154.089 4.83831 154.55 5.1321C154.997 5.4209 155.318 5.80659 155.516 6.28792H155.562V4.80518H158.246V13.1009C158.246 14.1048 157.848 14.9056 157.052 15.5038C156.256 16.1071 155.199 16.409 153.881 16.409Z" fill="white"/>
<path d="M38.7313 20.3316H36.3497L35.7208 22.0688H35.1514L37.273 16.3984H37.8074L39.9259 22.0688H39.3602L38.7313 20.3316ZM36.511 19.8684H38.5701L37.5524 17.0623H37.5286L36.511 19.8684Z" fill="white"/>
<path d="M43.8671 22.0691H43.1795L41.1048 19.9981H41.081V22.0691H40.5659V17.8372H41.081V19.7425H41.1048L43.1283 17.8372H43.7884L41.6311 19.8487L43.8671 22.0691Z" fill="white"/>
<path d="M47.4821 18.2729H46.0363V22.0691H45.5218V18.2729H44.0753V17.8372H47.4821V18.2729Z" fill="white"/>
<path d="M48.4729 23.5425C48.3835 23.5425 48.2973 23.5325 48.2135 23.5112V23.0674C48.2917 23.0855 48.3773 23.0949 48.4686 23.0949C48.6598 23.0949 48.8161 23.0386 48.9361 22.9255C49.0543 22.8155 49.1606 22.6273 49.2549 22.3598L49.3493 22.0966L47.7578 17.8372H48.3154L49.6125 21.5428H49.6244L50.9246 17.8372H51.4747L49.8244 22.2735C49.6413 22.7711 49.455 23.1068 49.2662 23.2793C49.0805 23.455 48.8161 23.5425 48.4729 23.5425Z" fill="white"/>
<path d="M53.3649 21.6595C53.745 21.6595 54.0619 21.5457 54.3163 21.3175C54.5726 21.0925 54.7014 20.8118 54.7014 20.4768V20.0092L53.463 20.0955C52.7373 20.143 52.3747 20.4086 52.3747 20.8931C52.3747 21.1212 52.4666 21.3057 52.6498 21.4476C52.8329 21.5888 53.0717 21.6595 53.3649 21.6595ZM53.263 22.1152C52.8411 22.1152 52.4991 22.0026 52.2372 21.7776C51.9753 21.5494 51.844 21.2538 51.844 20.8893C51.844 20.153 52.3629 19.7485 53.4005 19.6754L54.7014 19.5885V19.2272C54.7014 18.9178 54.6082 18.6783 54.422 18.5083C54.2338 18.3377 53.9688 18.2526 53.6281 18.2526C53.3324 18.2526 53.0874 18.3233 52.8936 18.4646C52.6998 18.609 52.5791 18.8065 52.5316 19.0584H52.0328C52.0541 18.6858 52.2147 18.382 52.516 18.1464C52.8148 17.9082 53.1868 17.7888 53.6324 17.7888C54.1169 17.7888 54.5032 17.9145 54.7914 18.1664C55.0771 18.4177 55.2196 18.7571 55.2196 19.184V22.0683H54.7245V21.2588H54.7126C54.5976 21.5157 54.4088 21.7226 54.1469 21.8795C53.8825 22.037 53.5874 22.1152 53.263 22.1152Z" fill="white"/>
<path d="M57.1457 20.2494C57.0982 20.8577 57.0013 21.3027 56.855 21.5859C56.6737 21.9316 56.3949 22.1047 56.018 22.1047C55.9311 22.1047 55.8523 22.0916 55.7817 22.0654V21.5897C55.8448 21.6109 55.9155 21.6209 55.9942 21.6209C56.2011 21.6209 56.358 21.4928 56.4655 21.2358C56.5574 21.0158 56.6199 20.6808 56.6543 20.2301C56.7143 19.6012 56.7693 18.8036 56.8194 17.8372H59.5267V22.0691H59.0122V18.2729H57.2869C57.2451 19.0799 57.1982 19.7387 57.1457 20.2494Z" fill="white"/>
<path d="M61.0513 19.715V21.6328H61.9671C62.2765 21.6328 62.524 21.5453 62.7097 21.3696C62.8935 21.1965 62.9847 20.9652 62.9847 20.6739C62.9847 20.3807 62.8922 20.1475 62.7059 19.9744C62.5228 19.8019 62.2765 19.715 61.9671 19.715H61.0513ZM60.5368 17.8372H61.0513V19.2749H61.9671C62.4334 19.2749 62.8053 19.4012 63.0829 19.6525C63.3636 19.9063 63.5036 20.2469 63.5036 20.6739C63.5036 21.0983 63.3636 21.4378 63.0829 21.6922C62.8053 21.9435 62.4334 22.0691 61.9671 22.0691H60.5368V17.8372Z" fill="white"/>
<path d="M67.1742 20.0888H64.8007V22.0691H64.2856V17.8372H64.8007V19.6525H67.1742V17.8372H67.6887V22.0691H67.1742V20.0888Z" fill="white"/>
<path d="M72.2982 17.8372H72.8133V22.0691H72.2982V17.8372ZM69.2171 19.715V21.6328H70.1329C70.4423 21.6328 70.6898 21.5453 70.8755 21.3696C71.0593 21.1965 71.1505 20.9652 71.1505 20.6739C71.1505 20.3807 71.058 20.1475 70.8718 19.9744C70.6886 19.8019 70.4423 19.715 70.1329 19.715H69.2171ZM68.7026 17.8372H69.2171V19.2749H70.1329C70.5992 19.2749 70.9711 19.4012 71.2493 19.6525C71.5294 19.9063 71.6694 20.2469 71.6694 20.6739C71.6694 21.0983 71.5294 21.4378 71.2493 21.6922C70.9711 21.9435 70.5992 22.0691 70.1329 22.0691H68.7026V17.8372Z" fill="white"/>
<path d="M74.8093 16.0566C74.8093 16.2923 74.88 16.4836 75.0219 16.6305C75.1656 16.7793 75.3569 16.8543 75.5951 16.8543C75.8339 16.8543 76.0239 16.7793 76.1652 16.6305C76.3064 16.4836 76.3771 16.2923 76.3771 16.0566H76.774C76.774 16.3942 76.6665 16.6655 76.4521 16.8699C76.2346 17.0768 75.9489 17.1806 75.5951 17.1806C75.2388 17.1806 74.9537 17.0768 74.7387 16.8699C74.5212 16.6655 74.4124 16.3942 74.4124 16.0566H74.8093ZM73.8267 22.0689V17.8369H74.3417V21.2594H74.3655L76.7703 17.8369H77.2847V22.0689H76.7703V18.6464H76.7428L74.3417 22.0689H73.8267Z" fill="white"/>
<path d="M80.0794 22.0691V17.8372H80.6964L82.3704 21.3815H82.3935L84.0638 17.8372H84.6614V22.0691H84.1426V18.7798H84.1188L82.5705 21.9866H82.166L80.6176 18.7798H80.5939V22.0691H80.0794Z" fill="white"/>
<path d="M87.0232 21.6595C87.4026 21.6595 87.7202 21.5457 87.974 21.3175C88.2309 21.0925 88.359 20.8118 88.359 20.4768V20.0092L87.1213 20.0955C86.3956 20.143 86.033 20.4086 86.033 20.8931C86.033 21.1212 86.1243 21.3057 86.3081 21.4476C86.4912 21.5888 86.7294 21.6595 87.0232 21.6595ZM86.9207 22.1152C86.4993 22.1152 86.1574 22.0026 85.8955 21.7776C85.6329 21.5494 85.5023 21.2538 85.5023 20.8893C85.5023 20.153 86.0211 19.7485 87.0582 19.6754L88.359 19.5885V19.2272C88.359 18.9178 88.2659 18.6783 88.0802 18.5083C87.8915 18.3377 87.627 18.2526 87.2864 18.2526C86.9901 18.2526 86.7456 18.3233 86.5512 18.4646C86.3574 18.609 86.2368 18.8065 86.1899 19.0584H85.6911C85.7117 18.6858 85.873 18.382 86.1743 18.1464C86.4731 17.9082 86.845 17.7888 87.2901 17.7888C87.7752 17.7888 88.1615 17.9145 88.4497 18.1664C88.7353 18.4177 88.8779 18.7571 88.8779 19.184V22.0683H88.3828V21.2588H88.3709C88.2559 21.5157 88.0671 21.7226 87.8052 21.8795C87.5401 22.037 87.2457 22.1152 86.9207 22.1152Z" fill="white"/>
<path d="M91.8096 17.7888C92.3441 17.7888 92.7785 17.9882 93.1142 18.3864C93.4467 18.7846 93.613 19.3059 93.613 19.9504C93.613 20.5949 93.4467 21.1175 93.1142 21.5182C92.7841 21.9164 92.3516 22.1152 91.8171 22.1152C91.4845 22.1152 91.1882 22.0302 90.9288 21.8601C90.6775 21.6976 90.4919 21.4763 90.3712 21.1956H90.3594V23.4554H89.8405V17.8363H90.3318V18.7121H90.3437C90.4562 18.4402 90.645 18.2183 90.9094 18.0482C91.1795 17.8751 91.4795 17.7888 91.8096 17.7888ZM91.7189 21.6476C92.1278 21.6476 92.4578 21.4932 92.7091 21.1844C92.9579 20.8725 93.0823 20.4624 93.0823 19.9542C93.0823 19.446 92.9579 19.0347 92.7091 18.7202C92.4578 18.4083 92.1278 18.2526 91.7189 18.2526C91.3158 18.2526 90.9882 18.4095 90.7363 18.724C90.4825 19.0409 90.3556 19.4497 90.3556 19.9504C90.3556 20.453 90.4825 20.8618 90.7363 21.1763C90.9882 21.4907 91.3158 21.6476 91.7189 21.6476Z" fill="white"/>
<path d="M97.7157 22.0691H97.0281L94.9533 19.9981H94.9296V22.0691H94.4145V17.8372H94.9296V19.7425H94.9533L96.9768 17.8372H97.6369L95.4797 19.8487L97.7157 22.0691Z" fill="white"/>
<path d="M99.8848 18.2489C99.5047 18.2489 99.1934 18.3783 98.9496 18.6377C98.7033 18.8946 98.5683 19.2334 98.5445 19.6554H101.177C101.172 19.2334 101.052 18.8946 100.816 18.6377C100.578 18.3783 100.267 18.2489 99.8848 18.2489ZM101.665 20.87C101.602 21.2338 101.411 21.5313 101.091 21.762C100.769 21.9976 100.38 22.1152 99.9241 22.1152C99.3372 22.1152 98.8708 21.9226 98.5252 21.5376C98.1795 21.15 98.0063 20.6249 98.0063 19.9617C98.0063 19.3047 98.1782 18.7777 98.5214 18.382C98.8671 17.987 99.324 17.7888 99.8929 17.7888C100.448 17.7888 100.892 17.9751 101.225 18.347C101.555 18.7215 101.72 19.2234 101.72 19.8517V20.0798H98.5445V20.1073C98.5445 20.5843 98.6721 20.9612 98.9259 21.2394C99.1778 21.5169 99.5141 21.6557 99.936 21.6557C100.248 21.6557 100.514 21.5826 100.734 21.4357C100.949 21.2944 101.087 21.1056 101.15 20.87H101.665Z" fill="white"/>
<path d="M105.5 18.2729H104.054V22.0691H103.539V18.2729H102.093V17.8372H105.5V18.2729Z" fill="white"/>
<path d="M106.164 22.0691V17.8372H106.679V21.2596H106.703L109.107 17.8372H109.623V22.0691H109.107V18.6467H109.08L106.679 22.0691H106.164Z" fill="white"/>
<path d="M113.521 20.0888H111.147V22.0691H110.632V17.8372H111.147V19.6525H113.521V17.8372H114.035V22.0691H113.521V20.0888Z" fill="white"/>
<path d="M115.564 18.2726V22.0689H115.049V17.8369H117.733V18.2726H115.564Z" fill="white"/>
<path d="M120.276 22.0691V17.8372H120.791V21.2596H120.815L123.219 17.8372H123.734V22.0691H123.219V18.6467H123.192L120.791 22.0691H120.276Z" fill="white"/>
<path d="M129.378 18.2726H127.043V22.0689H126.528V17.8369H129.892V22.0689H129.378V18.2726Z" fill="white"/>
<path d="M132.875 17.7888C133.41 17.7888 133.844 17.9882 134.18 18.3864C134.512 18.7846 134.679 19.3059 134.679 19.9504C134.679 20.5949 134.512 21.1175 134.18 21.5182C133.85 21.9164 133.417 22.1152 132.883 22.1152C132.55 22.1152 132.254 22.0302 131.994 21.8601C131.743 21.6976 131.558 21.4763 131.437 21.1956H131.425V23.4554H130.906V17.8363H131.398V18.7121H131.409C131.522 18.4402 131.711 18.2183 131.975 18.0482C132.245 17.8751 132.545 17.7888 132.875 17.7888ZM132.785 21.6476C133.193 21.6476 133.523 21.4932 133.775 21.1844C134.024 20.8725 134.148 20.4624 134.148 19.9542C134.148 19.446 134.024 19.0347 133.775 18.7202C133.523 18.4083 133.193 18.2526 132.785 18.2526C132.381 18.2526 132.054 18.4095 131.802 18.724C131.548 19.0409 131.421 19.4497 131.421 19.9504C131.421 20.453 131.548 20.8618 131.802 21.1763C132.054 21.4907 132.381 21.6476 132.785 21.6476Z" fill="white"/>
<path d="M137.19 22.1152C136.608 22.1152 136.143 21.9189 135.794 21.5257C135.444 21.1356 135.268 20.6105 135.268 19.9504C135.268 19.2928 135.444 18.7671 135.794 18.3745C136.143 17.9838 136.608 17.7888 137.19 17.7888C137.774 17.7888 138.24 17.9838 138.589 18.3745C138.94 18.7671 139.115 19.2928 139.115 19.9504C139.115 20.608 138.94 21.1331 138.589 21.5257C138.24 21.9189 137.774 22.1152 137.19 22.1152ZM137.19 21.6476C137.622 21.6476 137.962 21.4969 138.211 21.1956C138.461 20.8918 138.585 20.4768 138.585 19.9504C138.585 19.4235 138.461 19.0084 138.211 18.7046C137.962 18.4033 137.622 18.2526 137.19 18.2526C136.76 18.2526 136.421 18.4033 136.172 18.7046C135.923 19.0084 135.799 19.4235 135.799 19.9504C135.799 20.4768 135.923 20.8918 136.172 21.1956C136.421 21.4969 136.76 21.6476 137.19 21.6476Z" fill="white"/>
<path d="M142.809 18.2729H140.97C140.931 19.0224 140.882 19.6812 140.825 20.2494C140.77 20.9127 140.643 21.3659 140.443 21.609V21.6328H142.809V18.2729ZM139.484 23.1893V21.6328H139.826C140.11 21.4496 140.281 20.9821 140.341 20.2301C140.42 19.2605 140.475 18.4629 140.506 17.8372H143.328V21.6328H144.011V23.1893H143.524V22.0691H139.972V23.1893H139.484Z" fill="white"/>
<path d="M146 21.6595C146.38 21.6595 146.697 21.5457 146.951 21.3175C147.208 21.0925 147.336 20.8118 147.336 20.4768V20.0092L146.098 20.0955C145.372 20.143 145.01 20.4086 145.01 20.8931C145.01 21.1212 145.102 21.3057 145.285 21.4476C145.468 21.5888 145.707 21.6595 146 21.6595ZM145.898 22.1152C145.476 22.1152 145.134 22.0026 144.872 21.7776C144.61 21.5494 144.479 21.2538 144.479 20.8893C144.479 20.153 144.998 19.7485 146.036 19.6754L147.336 19.5885V19.2272C147.336 18.9178 147.243 18.6783 147.057 18.5083C146.868 18.3377 146.604 18.2526 146.263 18.2526C145.967 18.2526 145.722 18.3233 145.529 18.4646C145.335 18.609 145.214 18.8065 145.167 19.0584H144.668C144.689 18.6858 144.85 18.382 145.151 18.1464C145.45 17.9082 145.822 17.7888 146.267 17.7888C146.752 17.7888 147.138 17.9145 147.426 18.1664C147.712 18.4177 147.855 18.7571 147.855 19.184V22.0683H147.359V21.2588H147.348C147.233 21.5157 147.044 21.7226 146.782 21.8795C146.517 22.037 146.222 22.1152 145.898 22.1152Z" fill="white"/>
<path d="M154.123 22.0691H153.439L151.541 19.9981H151.517V22.0691H151.003V19.9981H150.979L149.081 22.0691H148.413L150.46 19.8606L148.476 17.8372H149.132L150.979 19.7425H151.003V17.8372H151.517V19.7425H151.541L153.388 17.8372H154.04L152.063 19.8487L154.123 22.0691Z" fill="white"/>
<path d="M154.732 22.0691V17.8372H155.247V21.2596H155.27L157.675 17.8372H158.19V22.0691H157.675V18.6467H157.648L155.247 22.0691H154.732Z" fill="white"/>
<path fill-rule="evenodd" clip-rule="evenodd" d="M20.0784 14.8932L20.1397 14.648L21.9167 20.1016L21.7022 20.408V20.3774L21.6409 20.4999C16.5244 27.3016 5.67848 25.9842 1.66488 19.0599C-2.59382 11.7068 1.72616 1.9945 10.0597 0.248129C10.9176 0.0949383 11.8061 0.00302315 12.6946 0.00302315C16.6469 0.00302315 20.8137 1.71876 22.9277 5.18087L24.5822 0.677061H29.7294L25.8384 11.4923L28.3507 18.4778C28.6264 19.1825 29.3924 19.5808 30.0971 19.397L30.3115 19.3357L31.6903 23.962L30.0358 24.391C27.6767 24.9731 25.2562 23.7782 24.3677 21.511C24.1533 21.1127 23.9388 20.6838 23.7856 20.2242L22.8665 17.8038L22.8052 17.7119V17.6812L20.7524 11.4617C19.6188 8.03021 17.5048 6.37575 15.8197 5.70171C14.9006 5.27278 13.8589 5.05832 12.7559 5.05832C8.49718 5.05832 5.06571 8.45914 5.06571 12.6259C5.06571 16.7927 8.49718 20.1935 12.7559 20.1935C16.1874 20.1935 19.098 17.957 20.0784 14.8932Z" fill="url(#paint0_linear_1_89)"/>
</g>
<defs>
<linearGradient id="paint0_linear_1_89" x1="0.0410604" y1="0.352299" x2="30.6792" y2="0.352299" gradientUnits="userSpaceOnUse">
<stop stop-color="#7A5FFF"/>
<stop offset="1" stop-color="#00E824"/>
</linearGradient>
<clipPath id="clip0_1_89">
<rect width="158.333" height="25" fill="white"/>
</clipPath>
</defs>
</svg>
