<svg viewBox="0 0 30 30" xmlns="http://www.w3.org/2000/svg" xml:space="preserve" style="fill-rule:evenodd;clip-rule:evenodd;stroke-linejoin:round;stroke-miterlimit:2"><path style="fill:none" d="M51.357 37.143h566.286v284.571H51.357z" transform="matrix(.05298 0 0 .10542 -2.72 -3.916)"/><path d="M4892 9789c-79-12-176-47-249-90-65-38-212-178-1138-1081l-640-624-7 80c-17 211-147 378-338 437-63 19-91 20-585 17l-520-3-75-36c-161-77-260-215-280-389-6-48-10-470-10-981v-896l-440-428c-242-235-456-449-475-475-51-70-101-183-119-272-70-341 129-685 460-794 81-26 102-29 226-29h137l6-3440 27-96c103-377 400-636 780-679 62-8 458-10 1193-8l1100 3 59 23c160 60 270 180 311 339 13 49 15 202 15 1048 0 1104-5 1033 69 1082l34 23h934l34-23c74-49 69 22 69-1082 0-846 2-999 15-1048 41-159 151-279 311-339l59-23 1100-3c731-2 1131 0 1192 7 380 44 678 303 781 679l27 97 6 3430 114-4c207-6 358 48 499 180 201 188 273 457 192 715-42 131-85 193-267 379-2252 2311-3995 4094-4052 4142-152 132-358 192-555 162Zm180-557c15-9 955-966 2089-2127 1530-1566 2066-2121 2081-2154 55-119-72-242-195-188-29 13-67 52-2193 2247-738 762-1401 1444-1475 1516-167 163-241 219-314 235-138 31-271-44-550-310-141-135-1322-1293-2668-2616-806-792-1068-1044-1101-1059-112-48-225 53-194 173 9 35 261 284 2177 2152 1191 1162 2180 2120 2196 2131 38 23 111 23 147 0Zm-67-1118c9-4 779-791 1711-1750l1694-1744-2-1902-3-1903-26-56c-36-76-86-129-161-170l-63-34-1018-3c-1122-3-1051-7-1099 60l-23 33-5 1025c-4 704-9 1034-16 1055-62 170-192 291-355 330-95 22-1383 22-1478 0-173-41-322-188-360-356-7-28-11-403-11-1034V674l-22-44c-45-87 41-81-1103-78l-1010 3-56 26c-79 37-133 90-171 167l-33 67-4 3810 1694 1655c1575 1538 1887 1840 1899 1840 2 0 12-3 21-6Zm-2782-138c18-7 43-26 57-40 25-27 25-28 28-255l3-227-353-344-353-345-3 540c-1 297 0 554 3 571 7 41 40 83 79 100 45 19 493 20 539 0Z" style="fill:#21a038;fill-rule:nonzero" transform="matrix(.00304 0 0 -.00304 .095 29.901)"/></svg>