<svg width="165" height="101" fill="none" xmlns="http://www.w3.org/2000/svg"><path d="M124.167 34.508v.304c0 3.584 0 5.38-.863 6.846-.862 1.467-2.433 2.338-5.566 4.084l-3.305 1.833c2.275-7.7 3.038-15.975 3.317-23.05l.042-.92.008-.218c2.713.942 4.238 1.646 5.188 2.963 1.179 1.637 1.179 3.813 1.179 8.158Zm-83.334 0v.304c0 3.584 0 5.38.863 6.846.862 1.467 2.433 2.338 5.567 4.084l3.308 1.833c-2.28-7.7-3.042-15.975-3.321-23.05l-.042-.92-.004-.218c-2.717.942-4.242 1.646-5.191 2.963-1.18 1.637-1.18 3.817-1.18 8.158Z" fill="#21A038"/><path fill-rule="evenodd" clip-rule="evenodd" d="M100.738 10.28A109.893 109.893 0 0 0 82.5 8.832c-7.43 0-13.554.654-18.237 1.446-4.746.8-7.117 1.2-9.1 3.642-1.98 2.442-1.875 5.079-1.667 10.354.72 18.117 4.629 40.75 25.879 42.75V81.75h-5.958a4.166 4.166 0 0 0-4.084 3.35l-.791 3.942H57.5a3.125 3.125 0 1 0 0 6.25h50a3.125 3.125 0 1 0 0-6.25H96.458l-.791-3.942a4.167 4.167 0 0 0-4.084-3.35h-5.958V67.025c21.25-2 25.163-24.63 25.879-42.75.209-5.275.317-7.917-1.666-10.354-1.984-2.442-4.355-2.842-9.1-3.642ZM85.779 24.695a3.126 3.126 0 0 1 1.93 2.887V44.25a3.125 3.125 0 1 1-6.25 0v-9.125l-.917.917a3.125 3.125 0 1 1-4.417-4.417l6.25-6.25a3.125 3.125 0 0 1 3.404-.68Z" fill="#21A038"/></svg>