<svg width="165" height="101" fill="none" xmlns="http://www.w3.org/2000/svg"><path d="M82.5 6.164c-3.379 0-6.777.387-9.394 1.11-2.618.72-4.297 1.882-4.649 2.607-5.664 11.322-6.035 25.502-6.055 34.955h40.196c-.02-9.453-.391-23.633-6.055-34.955-.352-.725-2.031-1.887-4.649-2.608-2.617-.722-6.015-1.109-9.394-1.109ZM41.875 33.117v3.516h9.375v-3.516h-9.375Zm71.875 0v3.516h9.375v-3.516h-9.375Zm-67.383 7.227V53.78l6.094 4.063c.312-1.172.82-2.266 1.426-3.262l-4.004-2.676V40.344h-3.516Zm68.75 0v11.562l-4.004 2.676c.606.996 1.114 2.09 1.426 3.262l6.094-4.063V40.344h-3.516Zm-37.11 8.008v2.734h8.985v-2.734h-8.984Zm-19.706 6.25c-1.211 1.347-2.324 3.203-2.578 4.785-.293 1.699-.04 2.949 2.226 4.199h49.102c2.265-1.25 2.519-2.5 2.226-4.2-.254-1.581-1.367-3.437-2.578-4.784H58.301Zm22.441 12.5v6.25L57.07 79.269l.86 3.399 22.812-5.703v5.566a8.66 8.66 0 0 1 1.758-.195 8.66 8.66 0 0 1 1.758.195v-5.566l22.812 5.703.86-3.399-23.672-5.917v-6.25h-3.516ZM57.5 85.852a4.468 4.468 0 0 0-4.492 4.492c0 2.5 1.992 4.492 4.492 4.492s4.492-1.992 4.492-4.492S60 85.852 57.5 85.852Zm25 0a4.468 4.468 0 0 0-4.492 4.492c0 2.5 1.992 4.492 4.492 4.492s4.492-1.992 4.492-4.492S85 85.852 82.5 85.852Zm25 0a4.468 4.468 0 0 0-4.492 4.492c0 2.5 1.992 4.492 4.492 4.492s4.492-1.992 4.492-4.492-1.992-4.492-4.492-4.492Z" fill="#21A038"/></svg>