<svg width="165" height="101" viewBox="0 0 165 101" fill="none" xmlns="http://www.w3.org/2000/svg">
<path fill-rule="evenodd" clip-rule="evenodd" d="M103.313 7.02004C103.65 6.47887 104.14 6.04973 104.721 5.78687C105.301 5.52401 105.947 5.43923 106.576 5.54323L123.156 8.30984C123.999 8.45045 124.752 8.92001 125.249 9.61533C125.746 10.3106 125.947 11.1748 125.807 12.018L123.047 28.6048C122.941 29.2335 122.652 29.817 122.215 30.2813C121.778 30.7457 121.214 31.0701 120.593 31.2137C119.971 31.3572 119.322 31.3135 118.725 31.0878C118.129 30.8622 117.613 30.4649 117.243 29.9462L112.767 23.6907L89.7184 38.4201C88.7355 39.0491 87.5584 39.3015 86.404 39.1308C85.2497 38.9602 84.1959 38.3779 83.4371 37.4915L70.5843 22.4653L46.5489 34.8151C45.4081 35.4018 44.081 35.5112 42.8595 35.1194C41.6379 34.7275 40.6221 33.8665 40.0355 32.7257C39.4488 31.5849 39.3394 30.2577 39.7312 29.0362C40.1231 27.8147 40.9841 26.7989 42.1249 26.2122L69.5653 12.1083C70.5341 11.6106 71.6425 11.4544 72.7111 11.6651C73.7797 11.8758 74.7459 12.4409 75.4533 13.2691L88.0546 28.005L107.144 15.8036L103.422 10.5992C103.053 10.0803 102.845 9.46329 102.825 8.82625C102.806 8.18922 102.975 7.56069 103.313 7.02004ZM61.0978 38.6845L42.3829 49.3898C41.6436 49.8121 41.0288 50.4222 40.6008 51.1582C40.1727 51.8942 39.9466 52.7302 39.9452 53.5817V90.6633C39.9452 93.3332 42.112 95.5 44.7819 95.5H61.0978V38.6845ZM69.1591 95.5H92.8139V51.5696L82.1795 56.8835L71.5516 38.2847C71.0149 37.3388 70.1739 36.6024 69.1655 36.1952L69.1591 95.5ZM118.945 95.5H100.875V47.539L116.785 39.5809C117.522 39.2128 118.341 39.0392 119.165 39.0766C119.988 39.114 120.788 39.3612 121.489 39.7947C122.19 40.2282 122.769 40.8337 123.17 41.5536C123.571 42.2735 123.782 43.084 123.782 43.9082V90.6633C123.782 91.9461 123.272 93.1763 122.365 94.0834C121.458 94.9904 120.228 95.5 118.945 95.5Z" fill="#21A038"/>
</svg>
