<svg width="90" height="90" viewBox="0 0 90 90" fill="none" xmlns="http://www.w3.org/2000/svg">
<path d="M45 0.555664C36.2097 0.555664 27.6168 3.16228 20.308 8.0459C12.9991 12.9295 7.30259 19.8708 3.93869 27.992C0.574799 36.1131 -0.305349 45.0494 1.40955 53.6708C3.12445 62.2922 7.35737 70.2114 13.573 76.4271C19.7887 82.6427 27.708 86.8757 36.3293 88.5906C44.9507 90.3055 53.887 89.4253 62.0082 86.0614C70.1293 82.6975 77.0706 77.001 81.9542 69.6921C86.8378 62.3833 89.4445 53.7904 89.4445 45.0001C89.4445 33.2127 84.7619 21.9081 76.427 13.5731C68.092 5.23819 56.7874 0.555664 45 0.555664ZM74.0278 30.0834L37.5278 66.5557L15.9722 45.0001C15.2355 44.2634 14.8216 43.2642 14.8216 42.2223C14.8216 41.1805 15.2355 40.1813 15.9722 39.4446C16.7089 38.7078 17.7081 38.294 18.75 38.294C19.7919 38.294 20.7911 38.7078 21.5278 39.4446L37.5833 55.5001L68.5278 24.5834C68.8926 24.2187 69.3256 23.9293 69.8022 23.7319C70.2789 23.5345 70.7897 23.4328 71.3056 23.4328C71.8214 23.4328 72.3323 23.5345 72.8089 23.7319C73.2855 23.9293 73.7186 24.2187 74.0833 24.5834C74.4481 24.9482 74.7375 25.3813 74.9349 25.8579C75.1323 26.3345 75.2339 26.8453 75.2339 27.3612C75.2339 27.8771 75.1323 28.3879 74.9349 28.8645C74.7375 29.3412 74.4481 29.7742 74.0833 30.139L74.0278 30.0834Z" fill="#21A038"/>
<path d="M74.0278 30.0834L37.5278 66.5557L15.9722 45.0001C15.2355 44.2634 14.8216 43.2642 14.8216 42.2223C14.8216 41.1805 15.2355 40.1813 15.9722 39.4446C16.7089 38.7078 17.7081 38.294 18.75 38.294C19.7919 38.294 20.7911 38.7078 21.5278 39.4446L37.5833 55.5001L68.5278 24.5834C68.8926 24.2187 69.3256 23.9293 69.8022 23.7319C70.2789 23.5345 70.7897 23.4328 71.3056 23.4328C71.8214 23.4328 72.3323 23.5345 72.8089 23.7319C73.2855 23.9293 73.7186 24.2187 74.0833 24.5834C74.4481 24.9482 74.7375 25.3813 74.9349 25.8579C75.1323 26.3345 75.2339 26.8453 75.2339 27.3612C75.2339 27.8771 75.1323 28.3879 74.9349 28.8645C74.7375 29.3412 74.4481 29.7742 74.0833 30.139L74.0278 30.0834Z" fill="white"/>
</svg>
