<svg width="18" height="12" viewBox="0 0 18 12" fill="none" xmlns="http://www.w3.org/2000/svg">
<path d="M16.967 1.50263C16.965 1.50063 16.965 1.49863 16.964 1.49663C16.961 1.49263 16.955 1.49063 16.952 1.48563C16.603 1.09463 16.097 0.849633 15.534 0.848633H4.99701C4.43401 0.848633 3.92801 1.09363 3.58101 1.48363L3.57901 1.48563C3.57501 1.48963 3.57001 1.49163 3.56701 1.49663C3.56501 1.49863 3.56501 1.50063 3.56401 1.50363C3.27001 1.83563 3.09101 2.27563 3.09101 2.75663V5.72063H0.842012C0.687012 5.72163 0.562012 5.84663 0.562012 6.00163C0.562012 6.15663 0.687012 6.28163 0.842012 6.28263H3.09101V7.80863H2.10701H2.10601C1.95101 7.80863 1.82501 7.93463 1.82501 8.08963C1.82501 8.24463 1.95101 8.37063 2.10601 8.37063H2.10701H3.09101V9.24663C3.09201 10.2996 3.94501 11.1526 4.99801 11.1536H15.535C16.588 11.1526 17.441 10.2996 17.442 9.24663V2.75763C17.442 2.27663 17.263 1.83663 16.967 1.50263ZM15.534 1.40963C15.822 1.40963 16.089 1.50163 16.307 1.65663L16.303 1.65363L10.938 5.81763C10.754 5.96163 10.52 6.04763 10.266 6.04763C10.012 6.04763 9.77801 5.96063 9.59201 5.81563L9.59401 5.81763L4.22901 1.65363C4.44301 1.50163 4.71001 1.40963 4.99701 1.40963H15.534ZM16.879 9.24363C16.878 9.98663 16.276 10.5876 15.534 10.5886H4.99701C4.25401 10.5876 3.65301 9.98563 3.65201 9.24363V8.36763H6.40701H6.40801C6.56301 8.36763 6.68901 8.24163 6.68901 8.08663C6.68901 7.93163 6.56301 7.80563 6.40801 7.80563H6.40701H3.65201V2.75463C3.65301 2.50063 3.72601 2.26363 3.85001 2.06263L3.84701 2.06863L9.25001 6.26163C9.52801 6.47863 9.88201 6.60963 10.266 6.60963C10.65 6.60963 11.005 6.47863 11.286 6.25863L11.282 6.26163L16.685 2.06863C16.806 2.26463 16.878 2.50063 16.88 2.75463L16.879 9.24363Z" fill="#21A038"/>
</svg>
