<svg width="20" height="18" fill="none" xmlns="http://www.w3.org/2000/svg"><path d="m11.913 12.405 2.611-3.554c.62-.799.993-1.816.993-2.92v-.017.001a5.444 5.444 0 0 0-1.726-3.949l-.003-.003a5.39 5.39 0 0 0-9.05 3.628l-.001.015A5.38 5.38 0 0 0 5.788 9.13l-.01-.015 2.263 3.296c-3.804.207-7.483 1.041-7.483 2.508 0 1.663 4.865 2.562 9.442 2.562s9.442-.899 9.442-2.562c0-1.498-3.711-2.329-7.529-2.512ZM5.298 5.636a4.832 4.832 0 0 1 4.479-4.54l.015-.002c.111-.007.222-.01.333-.01h.015c1.264 0 2.414.49 3.268 1.292l-.003-.002a4.883 4.883 0 0 1 1.55 3.542v.002a4.264 4.264 0 0 1-.874 2.588l.008-.01-4.165 5.668-3.689-5.376a4.75 4.75 0 0 1-.937-3.164l-.001.014.001-.002ZM10 16.918c-5.502 0-8.881-1.164-8.881-2 0-.306.53-.788 2.016-1.217 1.568-.423 3.38-.692 5.245-.745l.034-.002.969 1.412H6.822a.281.281 0 0 0 0 .563h6.108a.281.281 0 0 0 0-.563h-2.458l1.04-1.415c4.552.166 7.368 1.147 7.368 1.967 0 .836-3.378 2-8.88 2Z" fill="#21A038"/><path d="M11.283 6.038a1.16 1.16 0 1 1-2.32 0 1.16 1.16 0 0 1 2.32 0Z" fill="#21A038"/></svg>