<svg width="18" height="14" fill="none" xmlns="http://www.w3.org/2000/svg"><path d="M7.57 6.56a.474.474 0 1 1-.948 0 .474.474 0 0 1 .947 0ZM9.647 6.56a.474.474 0 1 1-.947 0 .474.474 0 0 1 .947 0ZM11.725 6.56a.474.474 0 1 1-.947 0 .474.474 0 0 1 .947 0ZM7.095 7.995a.474.474 0 1 0 0 .948.474.474 0 0 0 0-.948ZM9.173 7.995a.474.474 0 1 0 0 .948.474.474 0 0 0 0-.948ZM11.251 7.995a.474.474 0 1 0 0 .948.474.474 0 0 0 0-.948ZM7.57 10.267a.474.474 0 1 1-.948 0 .474.474 0 0 1 .947 0ZM9.647 10.267a.474.474 0 1 1-.947 0 .474.474 0 0 1 .947 0ZM11.725 10.267a.474.474 0 1 1-.947 0 .474.474 0 0 1 .947 0Z" fill="#21A038"/><path d="m17.331 3.6-.005-.014C16.633 1.49 14.693.003 12.405 0h-6.74A5.176 5.176 0 0 0 .759 3.55l-.01.037-.005.013A5.03 5.03 0 0 0 .5 5.166c0 .372.302.674.674.674h2.999l-1.38 2.297a5.598 5.598 0 0 0-.808 2.912v.642a1.619 1.619 0 0 0 1.617 1.617h11.285a1.619 1.619 0 0 0 1.617-1.617v-.01a6.838 6.838 0 0 0-1.254-3.958l.014.022-1.328-1.905h2.973a.668.668 0 0 0 .667-.667c0-.562-.09-1.102-.256-1.608l.01.036.001-.001ZM5.665.561h6.74a4.616 4.616 0 0 1 4.251 2.828l.011.03h-3.903a2.403 2.403 0 0 0-1.816-.826H7.043a2.41 2.41 0 0 0-1.808.824l-.002.003H1.407C2.114 1.73 3.753.564 5.664.562l.001-.001ZM1.061 5.165c.002-.422.06-.829.168-1.216l-.008.032h3.642a2.345 2.345 0 0 0-.224.819l-.001.009a1.265 1.265 0 0 1-.143.475l.003-.007H1.173a.113.113 0 0 1-.113-.113l.001.001Zm14.882 6.525a1.057 1.057 0 0 1-1.055 1.055H3.603a1.057 1.057 0 0 1-1.055-1.055v-.642c0-.969.271-1.875.74-2.646l-.013.023 1.587-2.643a.277.277 0 0 0 .116-.2c.117-.21.196-.458.22-.72l.001-.007a1.863 1.863 0 0 1 1.845-1.7h3.903c.989 0 1.799.777 1.849 1.754v.004c.01.199.076.381.183.532l-.002-.003 1.829 2.623a6.255 6.255 0 0 1 1.139 3.616v.01l-.002-.001Zm.967-6.413h-3.365l-.109-.157a.448.448 0 0 1-.081-.235v-.001a2.409 2.409 0 0 0-.231-.918l.006.015h3.723c.101.357.16.767.162 1.19v.001a.105.105 0 0 1-.105.105Z" fill="#21A038"/></svg>