<svg width="13" height="14" fill="none" xmlns="http://www.w3.org/2000/svg"><path d="M7.805 9.263H.83V7.045h6.897c.52 0 .946-.076 1.278-.23.333-.153.578-.37.735-.652.158-.28.237-.613.237-.997 0-.375-.079-.714-.237-1.016a1.735 1.735 0 0 0-.722-.722c-.324-.18-.729-.269-1.214-.269H5.44V14H2.69V.91h5.114c1.035 0 1.922.184 2.659.555.741.367 1.308.87 1.7 1.509.392.635.586 1.355.582 2.16.004.844-.194 1.575-.595 2.193-.4.618-.971 1.095-1.713 1.432-.741.336-1.62.504-2.633.504Zm.492.844v2.218H.83v-2.218h7.466Z" fill="#21A038"/></svg>