<svg width="50" height="36" fill="none" xmlns="http://www.w3.org/2000/svg"><path d="M25.16.247h.277c2.57.01 15.585.103 19.094 1.047a6.282 6.282 0 0 1 4.422 4.437c.316 1.188.538 2.76.688 4.382l.03.325.07.812.025.325c.203 2.856.228 5.531.23 6.116v.234a100.25 100.25 0 0 1-.255 6.437l-.025.329-.029.325c-.156 1.787-.387 3.562-.734 4.868a6.271 6.271 0 0 1-4.422 4.438c-3.625.975-17.403 1.044-19.312 1.047h-.444c-.966 0-4.96-.019-9.147-.163l-.531-.019-.272-.012-.534-.022-.535-.022c-3.469-.153-6.772-.4-8.293-.812a6.273 6.273 0 0 1-4.422-4.435c-.347-1.303-.578-3.08-.735-4.868l-.025-.328-.025-.326A98.123 98.123 0 0 1 0 18v-.384c.006-.672.031-2.994.2-5.557l.022-.321.01-.163.024-.325.069-.813.031-.324c.15-1.622.372-3.197.688-4.382a6.272 6.272 0 0 1 4.422-4.437C6.987.887 10.29.637 13.759.48l.532-.022.537-.018.269-.01.534-.022C18.605.314 21.581.26 24.556.25h.603V.247ZM20 10.278v15.056l12.99-7.525L20 10.28Z" fill="#999"/></svg>