<svg width="165" height="101" viewBox="0 0 165 101" fill="none" xmlns="http://www.w3.org/2000/svg">
<g clip-path="url(#clip0_7029_288)">
<path fill-rule="evenodd" clip-rule="evenodd" d="M53.2484 58.5005L38.75 84.2373L61.026 80.8325L72.7365 100.085L81.6886 70.8859C81.6332 70.9017 81.5757 70.9172 81.5163 70.9323L74.5565 74.1445C72.6885 75.511 70.771 75.5031 70.081 75.5002H70.0809L70.0006 75.5C65.8368 75.5 62.1189 72.7318 60.8649 68.3005L57.9581 60.7427C57.7976 60.5049 57.4957 60.2031 57.2579 60.0426L53.2484 58.5005ZM83.4922 71.5126L92.0989 100.087L103.809 80.8339L126.085 84.2387L111.918 58.8215L107.118 60.6676C106.881 60.8281 106.579 61.1299 106.418 61.3677L103.417 69.1699L103.218 69.6873L102.911 70.1485C101.071 72.9076 97.8264 75.5 93.7506 75.5L93.6704 75.5002H93.6703C92.9803 75.5031 91.0628 75.511 89.1948 74.1445L83.4922 71.5126ZM63.2802 60.6519L77.4962 67.2809L71.8756 69.875C71.2506 70.5 70.6256 70.5 70.0006 70.5C68.1256 70.5 66.2506 69.25 65.6256 66.75L63.2802 60.6519ZM101.252 60.8716L98.7506 67.375C97.5006 69.25 95.6256 70.5 93.7506 70.5C93.1256 70.5 92.5006 70.5 91.8756 69.875L86.8843 67.5713L101.252 60.8716Z" fill="#21A038"/>
<path d="M113.126 37.375C112.501 36.125 112.501 34.25 113.126 33L116.876 25.5C118.126 23 116.876 19.875 113.751 18.625L105.626 15.5C104.376 14.875 103.126 13.625 102.501 12.375L99.3756 4.25C98.7506 1.75 96.8756 0.5 95.0006 0.5C94.3756 0.5 93.1256 0.5 92.5006 1.125L84.3756 4.875H82.5006C81.8756 4.875 81.2506 4.875 80.6256 4.25L72.5006 1.125C71.8756 0.5 70.6256 0.5 70.0006 0.5C68.1256 0.5 66.2506 1.75 65.0006 3.625L61.8756 12.375C61.8756 13.625 60.6256 14.875 59.3756 15.5L50.6256 18.625C48.1256 19.25 46.8756 22.375 48.1256 25.5L51.8756 33.625C52.5006 34.875 52.5006 36.75 51.8756 38L48.1256 45.5C46.8756 48 48.1256 51.125 51.2506 52.375L59.3756 55.5C60.6256 56.125 61.8756 57.375 62.5006 58.625L65.6256 66.75C66.2506 69.25 68.1256 70.5 70.0006 70.5C70.6256 70.5 71.2506 70.5 71.8756 69.875L80.0006 66.125C80.6256 66.125 81.2506 65.5 81.8756 65.5C82.5006 65.5 83.1256 65.5 83.7506 66.125L91.8756 69.875C92.5006 70.5 93.1256 70.5 93.7506 70.5C95.6256 70.5 97.5006 69.25 98.7506 67.375L101.876 59.25C102.501 58 103.751 56.75 105.001 56.125L113.126 53C115.626 51.75 117.501 48.625 116.251 46.125L113.126 37.375ZM82.5006 60.5C68.7506 60.5 57.5006 49.25 57.5006 35.5C57.5006 21.75 68.7506 10.5 82.5006 10.5C96.2506 10.5 107.501 21.75 107.501 35.5C107.501 49.25 96.2506 60.5 82.5006 60.5Z" fill="#21A038"/>
<path d="M101.25 35.5006C101.25 40.4734 99.2746 45.2426 95.7583 48.7589C92.2419 52.2752 87.4728 54.2506 82.5 54.2506C77.5272 54.2506 72.7581 52.2752 69.2417 48.7589C65.7254 45.2426 63.75 40.4734 63.75 35.5006C63.75 30.5278 65.7254 25.7587 69.2417 22.2424C72.7581 18.7261 77.5272 16.7506 82.5 16.7506C87.4728 16.7506 92.2419 18.7261 95.7583 22.2424C99.2746 25.7587 101.25 30.5278 101.25 35.5006Z" fill="#21A038"/>
</g>
<defs>
<clipPath id="clip0_7029_288">
<rect width="100" height="100" fill="white" transform="translate(32.5 0.5)"/>
</clipPath>
</defs>
</svg>
