<svg width="42" height="42" fill="none" xmlns="http://www.w3.org/2000/svg"><path d="M27.402.167H14.62C2.944.167.167 2.944.167 14.598v12.784c0 11.672 2.756 14.452 14.431 14.452h12.784c11.672 0 14.452-2.757 14.452-14.432V14.62C41.834 2.944 39.077.167 27.402.167Zm6.402 29.73h-3.04c-1.15 0-1.495-.932-3.557-2.995-1.8-1.735-2.56-1.952-3.017-1.952-.63 0-.802.173-.802 1.042v2.733c0 .74-.24 1.173-2.171 1.173a11.857 11.857 0 0 1-9.267-5.556 24.22 24.22 0 0 1-4.796-10.069c0-.456.173-.868 1.042-.868h3.038c.78 0 1.062.347 1.368 1.15 1.475 4.341 3.992 8.116 5.013 8.116.392 0 .562-.173.562-1.15v-4.47c-.129-2.04-1.212-2.213-1.212-2.95a.75.75 0 0 1 .78-.697h4.774c.652 0 .869.325.869 1.107v6.033c0 .652.281.869.477.869.392 0 .694-.217 1.41-.933a25 25 0 0 0 3.734-6.209 1.308 1.308 0 0 1 1.323-.867h3.04c.91 0 1.103.457.91 1.107a37.932 37.932 0 0 1-4.08 7.01c-.327.5-.458.76 0 1.346.302.456 1.367 1.346 2.084 2.192a13.51 13.51 0 0 1 2.56 3.558c.26.846-.175 1.28-1.041 1.28Z" fill="#999"/></svg>