<svg width="18" height="12" fill="none" xmlns="http://www.w3.org/2000/svg"><path d="m16.967 1.503-.003-.006c-.003-.004-.009-.006-.012-.011a1.9 1.9 0 0 0-1.418-.637H4.997a1.89 1.89 0 0 0-1.416.635l-.002.002c-.004.004-.009.006-.012.01l-.003.008a1.885 1.885 0 0 0-.473 1.253V5.72H.842a.281.281 0 0 0 0 .562h2.249v1.526h-.985a.281.281 0 0 0 0 .562h.985v.876a1.909 1.909 0 0 0 1.907 1.907h10.537a1.909 1.909 0 0 0 1.907-1.907v-6.49c0-.48-.179-.92-.475-1.254Zm-1.433-.093c.288 0 .555.092.773.247l-.004-.003-5.365 4.164a1.093 1.093 0 0 1-1.346-.002l.002.002-5.365-4.164c.214-.152.481-.244.768-.244h10.537Zm1.345 7.834a1.347 1.347 0 0 1-1.345 1.345H4.997a1.347 1.347 0 0 1-1.345-1.345v-.876h2.756a.281.281 0 0 0 0-.562H3.652V2.755c.001-.254.074-.491.198-.692l-.003.006L9.25 6.262c.278.217.632.348 1.016.348a1.65 1.65 0 0 0 1.02-.351l-.004.003 5.403-4.193c.121.196.193.432.195.686l-.001 6.489Z" fill="#21A038"/></svg>