<svg width="165" height="101" fill="none" xmlns="http://www.w3.org/2000/svg"><g clip-path="url(#a)" fill="#21A038"><path d="M60.417 50.5a56.829 56.829 0 0 0 1.722 13.694h18V37.861h-18.25A57.08 57.08 0 0 0 60.417 50.5ZM84.861 64.222h18a56.768 56.768 0 0 0 1.861-13.722 57.071 57.071 0 0 0-1.444-12.639H84.861v26.361Z"/><path d="M124.5 36.083a20.655 20.655 0 0 1-5.278 1.611h-.611a18.803 18.803 0 0 1-5.75 0h-5a60.768 60.768 0 0 1 1.472 12.806 61.647 61.647 0 0 1-1.583 13.694h11.111a38.808 38.808 0 0 1-2.305 5.028h-10.167a60.54 60.54 0 0 1-8.333 16.667 38.5 38.5 0 0 1-8.334 2.555 56.133 56.133 0 0 0 11.611-19.277H84.889v19.86h-4.695V69.14H63.667a56.138 56.138 0 0 0 11.61 19.305 38.493 38.493 0 0 1-8.166-2.5 60.555 60.555 0 0 1-8.333-16.805H48.556a38.724 38.724 0 0 1-2.306-5.028h11.111A61.67 61.67 0 0 1 55.75 50.5a60.776 60.776 0 0 1 1.333-12.639h-11.36a38.563 38.563 0 0 1 2.11-5.028h10.584a61.832 61.832 0 0 1 9.11-18.444 38.496 38.496 0 0 1 7.973-2.333A55.916 55.916 0 0 0 63.278 32.75h16.916V11.611h4.695v21.222h16.917v-.36A20.748 20.748 0 0 1 95.25 19.25a56.576 56.576 0 0 0-5.556-7.083c1.944.374 3.857.894 5.723 1.555.299-1.784.831-3.52 1.583-5.166a44.611 44.611 0 1 0 27.583 27.583l-.083-.056Z"/><path fill-rule="evenodd" clip-rule="evenodd" d="M129.722 17.167c0 7.67-6.218 13.889-13.889 13.889-7.67 0-13.889-6.219-13.889-13.89 0-7.67 6.219-13.888 13.889-13.888 7.671 0 13.889 6.218 13.889 13.889Zm-11.44-3.371-2.449-4.963-2.449 4.963-5.476.796 3.963 3.862-.936 5.454 4.898-2.575 4.899 2.576-.936-5.455 3.963-3.863-5.477-.795Z"/></g><defs><clipPath id="a"><path fill="#fff" transform="translate(32.5 .5)" d="M0 0h100v100H0z"/></clipPath></defs></svg>