<svg width="165" height="101" fill="none" xmlns="http://www.w3.org/2000/svg"><g clip-path="url(#a)" fill="#21A038"><path fill-rule="evenodd" clip-rule="evenodd" d="M53.248 58.5 38.75 84.237l22.276-3.404 11.71 19.252 8.953-29.2a6.184 6.184 0 0 1-.173.047l-6.96 3.212c-1.867 1.367-3.785 1.36-4.475 1.356H70c-4.164 0-7.882-2.768-9.136-7.2l-2.907-7.557a3.01 3.01 0 0 0-.7-.7l-4.01-1.542Zm30.244 13.013 8.607 28.574 11.71-19.253 22.276 3.405-14.167-25.418-4.8 1.847c-.237.16-.539.462-.7.7l-3.001 7.802-.199.517-.307.462c-1.84 2.759-5.085 5.351-9.16 5.351h-.08c-.69.003-2.608.011-4.476-1.356l-5.703-2.631ZM63.28 60.652l14.216 6.629-5.62 2.594c-.625.625-1.25.625-1.875.625-1.875 0-3.75-1.25-4.375-3.75l-2.346-6.098Zm37.972.22-2.501 6.503c-1.25 1.875-3.125 3.125-5 3.125-.625 0-1.25 0-1.875-.625l-4.992-2.304 14.368-6.7Z"/><path d="M113.126 37.375c-.625-1.25-.625-3.125 0-4.375l3.75-7.5c1.25-2.5 0-5.625-3.125-6.875l-8.125-3.125c-1.25-.625-2.5-1.875-3.125-3.125L99.376 4.25C98.75 1.75 96.876.5 95 .5c-.625 0-1.875 0-2.5.625l-8.125 3.75H82.5c-.625 0-1.25 0-1.875-.625L72.5 1.125C71.876.5 70.626.5 70 .5c-1.875 0-3.75 1.25-5 3.125l-3.125 8.75c0 1.25-1.25 2.5-2.5 3.125l-8.75 3.125c-2.5.625-3.75 3.75-2.5 6.875l3.75 8.125c.625 1.25.625 3.125 0 4.375l-3.75 7.5c-1.25 2.5 0 5.625 3.125 6.875l8.125 3.125c1.25.625 2.5 1.875 3.125 3.125l3.125 8.125c.625 2.5 2.5 3.75 4.375 3.75.625 0 1.25 0 1.875-.625L80 66.125c.625 0 1.25-.625 1.875-.625s1.25 0 1.875.625l8.125 3.75c.625.625 1.25.625 1.875.625 1.875 0 3.75-1.25 5-3.125l3.125-8.125c.625-1.25 1.875-2.5 3.125-3.125L113.126 53c2.5-1.25 4.375-4.375 3.125-6.875l-3.125-8.75ZM82.501 60.5c-13.75 0-25-11.25-25-25s11.25-25 25-25 25 11.25 25 25-11.25 25-25 25Z"/><path d="M101.25 35.5a18.75 18.75 0 1 1-37.5 0 18.75 18.75 0 0 1 37.5 0Z"/></g><defs><clipPath id="a"><path fill="#fff" transform="translate(32.5 .5)" d="M0 0h100v100H0z"/></clipPath></defs></svg>