<svg width="20" height="18" viewBox="0 0 20 18" fill="none" xmlns="http://www.w3.org/2000/svg">
<path d="M11.913 12.4055L14.524 8.85146C15.144 8.05246 15.517 7.03546 15.517 5.93146C15.517 5.92546 15.517 5.91946 15.517 5.91446V5.91546C15.507 4.35646 14.845 2.95446 13.791 1.96646L13.788 1.96346C12.829 1.07046 11.538 0.522461 10.119 0.522461C7.24998 0.522461 4.90398 2.76346 4.73798 5.59146L4.73698 5.60646C4.73098 5.69846 4.72798 5.80646 4.72798 5.91446C4.72798 7.11846 5.12198 8.23146 5.78798 9.12946L5.77798 9.11446L8.04098 12.4105C4.23698 12.6165 0.557983 13.4515 0.557983 14.9185C0.557983 16.5815 5.42298 17.4795 9.99998 17.4795C14.577 17.4795 19.442 16.5815 19.442 14.9185C19.442 13.4195 15.731 12.5895 11.913 12.4055ZM5.29798 5.63646C5.44098 3.20446 7.36498 1.26346 9.77698 1.09546L9.79198 1.09446C9.90332 1.08713 10.0143 1.08346 10.125 1.08346C10.129 1.08346 10.134 1.08346 10.14 1.08346C11.404 1.08346 12.554 1.57446 13.408 2.37646L13.405 2.37446C14.353 3.26346 14.946 4.52046 14.955 5.91646V5.91846C14.954 6.89146 14.628 7.78846 14.081 8.50646L14.089 8.49646L9.92398 14.1635L6.23498 8.78846C5.64398 8.00146 5.28798 7.00846 5.28798 5.93246C5.28798 5.82846 5.29098 5.72646 5.29798 5.62446L5.29698 5.63846L5.29798 5.63646ZM9.99998 16.9175C4.49798 16.9175 1.11898 15.7535 1.11898 14.9185C1.11898 14.6115 1.64898 14.1295 3.13498 13.7005C4.70298 13.2785 6.51498 13.0095 8.37998 12.9555L8.41398 12.9545L9.38298 14.3665H6.82198C6.66698 14.3665 6.54098 14.4925 6.54098 14.6475C6.54098 14.8025 6.66698 14.9285 6.82198 14.9285H12.93C13.085 14.9285 13.211 14.8025 13.211 14.6475C13.211 14.4925 13.085 14.3665 12.93 14.3665H10.472L11.512 12.9505C16.064 13.1175 18.88 14.0985 18.88 14.9185C18.88 15.7535 15.502 16.9175 9.99998 16.9175Z" fill="#21A038"/>
<path d="M11.2828 6.03793C11.2828 6.67893 10.7638 7.19793 10.1228 7.19793C9.48177 7.19793 8.96277 6.67893 8.96277 6.03793C8.96277 5.39693 9.48177 4.87793 10.1228 4.87793C10.7638 4.87793 11.2828 5.39693 11.2828 6.03793Z" fill="#21A038"/>
</svg>
