<svg width="42" height="42" fill="none" xmlns="http://www.w3.org/2000/svg"><path d="M21 .167C9.5.167.167 9.5.167 21 .167 32.5 9.5 41.834 21 41.834c11.5 0 20.834-9.334 20.834-20.834S32.5.167 21 .167Zm9.667 14.167c-.313 3.291-1.667 11.291-2.354 14.979-.292 1.562-.875 2.083-1.417 2.146-1.208.104-2.125-.792-3.291-1.563-1.834-1.208-2.875-1.958-4.646-3.125-2.063-1.354-.73-2.104.458-3.312.313-.313 5.646-5.167 5.75-5.604a.417.417 0 0 0-.104-.375c-.125-.105-.292-.063-.438-.042-.187.042-3.104 1.979-8.791 5.812-.834.563-1.584.855-2.25.834-.75-.021-2.167-.417-3.23-.771-1.312-.417-2.333-.646-2.25-1.375.042-.375.563-.75 1.542-1.146 6.083-2.646 10.125-4.396 12.146-5.23 5.792-2.416 6.98-2.832 7.77-2.832.168 0 .563.041.813.25.209.166.271.395.292.562-.02.125.02.5 0 .792Z" fill="#999"/></svg>