<svg width="60" height="30" fill="none" xmlns="http://www.w3.org/2000/svg"><g clip-path="url(#a)" fill="#fff"><path d="M42.758 13.577a2.305 2.305 0 0 1-.346-.961 5.188 5.188 0 0 1-.042-.384c-.016-.224.036-.442.086-.659.097-.42.16-.843.083-1.276a3.303 3.303 0 0 0-.773-1.654c-.19-.215-.423-.381-.656-.546-.263-.186-.512-.385-.67-.676-.01-.02-.028-.037-.041-.056-.146-.223-.286-.448-.34-.714-.017-.088-.033-.177-.054-.264-.058-.247-.1-.5-.18-.738-.172-.503-.49-.912-.883-1.263a2.827 2.827 0 0 0-1.308-.673c-.137-.03-.274-.061-.41-.095a1.725 1.725 0 0 1-.573-.228c-.12-.081-.237-.166-.359-.242a1.643 1.643 0 0 1-.476-.478l-.282-.417a2.7 2.7 0 0 0-.719-.731c-.546-.37-1.145-.588-1.81-.588a4.97 4.97 0 0 0-.65.074c-.166.022-.331.054-.497.078-.221.031-.436-.022-.65-.058a2.034 2.034 0 0 1-.867-.333 4.223 4.223 0 0 0-.295-.192c-.137-.082-.273-.167-.417-.236A2.907 2.907 0 0 0 28.356 0C27.798 0 27.27.119 26.793.418c-.122.076-.242.158-.365.233-.12.074-.242.144-.363.214a.666.666 0 0 1-.476.072C25.398.9 25.206.865 25.017.82a2.894 2.894 0 0 0-1.369-.033c-.634.147-1.2.42-1.644.909-.133.147-.247.311-.372.467-.1.125-.202.248-.304.37a.491.491 0 0 1-.309.177c-.196.03-.391.071-.59.09a3.01 3.01 0 0 0-1.602.625c-.537.418-.922.938-1.104 1.6a7.931 7.931 0 0 1-.116.38c-.153.491-.49.904-.94 1.15-.167.094-.334.187-.499.285-.2.114-.383.258-.54.426-.69.754-1.01 1.628-.867 2.655.032.236.06.475.008.712-.04.182-.099.36-.145.542a1.596 1.596 0 0 1-.278.563c-.121.162-.247.322-.37.484a2.49 2.49 0 0 0-.435.876 4.12 4.12 0 0 0-.114.584c-.063.574.004 1.13.27 1.653.084.167.174.331.262.497.082.155.168.314.188.489.026.224.112.437.1.668-.005.1.024.201.028.302.012.23-.046.45-.101.67-.078.314-.16.628-.165.957.02.174.03.35.062.522.1.577.356 1.116.74 1.556.189.212.416.38.64.55.24.174.444.394.6.646.164.262.27.556.314.861.04.298.07.6.179.882.384.988 1.061 1.667 2.094 1.967.21.061.421.116.628.186.285.093.529.284.688.538.095.152.19.305.275.463a2.94 2.94 0 0 0 1.206 1.21c.43.236.885.396 1.38.399.23.001.46-.025.69-.042.218-.017.435-.053.653-.01.115.022.229.05.342.079.285.072.562.163.797.35.107.085.22.163.327.248.432.347.955.563 1.506.62.615.07 1.208.003 1.762-.293.169-.09.336-.184.504-.274.16-.093.333-.158.514-.191.196-.03.393-.057.591-.08a.72.72 0 0 1 .21 0c.23.042.46.082.687.14.44.115.883.16 1.333.071.812-.16 1.494-.535 1.987-1.217.023-.032.048-.062.072-.093.19-.268.431-.495.71-.668.317-.19.638-.34 1.007-.385.225-.027.448-.068.668-.123.866-.219 1.814-1.05 2.087-2.017.03-.109.063-.217.09-.327.084-.331.197-.644.405-.926.211-.287.434-.55.748-.728.095-.054.186-.113.279-.172.19-.115.369-.25.53-.405.374-.38.65-.845.802-1.357.113-.338.154-.696.12-1.051-.027-.225-.058-.45-.084-.674a1.717 1.717 0 0 1 .013-.594c.034-.148.072-.295.104-.444.034-.16.097-.314.186-.452.098-.15.199-.299.303-.445a2.957 2.957 0 0 0 .588-1.77c.008-.484-.07-.95-.295-1.383a5.75 5.75 0 0 0-.293-.507Zm-.296 2.08c-.035.395-.18.772-.421 1.088-.13.175-.25.36-.365.544a2.033 2.033 0 0 0-.244.594c-.017.068-.044.133-.067.199a.264.264 0 0 0-.016.043c-.026.165-.05.33-.075.496-.026.23-.021.46.015.689.027.232.064.464.081.697.043.567-.32 1.452-.942 1.844l-.465.293c-.29.174-.54.404-.738.677-.02.028-.05.05-.071.077a1.971 1.971 0 0 0-.094.13c-.022.032-.035.07-.059.1-.183.24-.318.513-.398.804-.047.16-.094.322-.133.485-.141.59-.505 1.01-.997 1.337-.252.159-.535.26-.83.298-.25.04-.502.078-.747.142-.17.054-.337.12-.498.199-.079.033-.155.072-.232.108a.331.331 0 0 0-.051.028c-.092.066-.181.135-.275.197a2.55 2.55 0 0 0-.578.544c-.093.115-.187.23-.275.35-.288.395-.682.633-1.143.772a2.231 2.231 0 0 1-.637.098 2.33 2.33 0 0 1-.563-.084c-.252-.056-.501-.124-.756-.16-.179-.024-.365-.003-.548-.002-.03 0-.062.01-.093.01a.739.739 0 0 0-.174.004c-.273.078-.565.087-.822.22-.173.09-.348.178-.52.27-.21.113-.415.238-.651.287-.682.139-1.32.056-1.89-.375a16.97 16.97 0 0 0-.508-.376 2.223 2.223 0 0 0-.697-.327 1.553 1.553 0 0 1-.152-.058.408.408 0 0 0-.065-.026c-.164-.032-.328-.064-.493-.092a2.664 2.664 0 0 0-.69-.008c-.194.018-.388.04-.582.053-.446.029-.847-.112-1.224-.333a1.96 1.96 0 0 1-.73-.729 24.064 24.064 0 0 0-.301-.515 2.28 2.28 0 0 0-1.372-1.047c-.157-.045-.315-.092-.473-.132-.65-.162-1.094-.576-1.416-1.142-.149-.26-.194-.55-.236-.84-.04-.278-.074-.56-.185-.82-.214-.5-.495-.956-.935-1.295-.12-.093-.238-.19-.36-.28-.438-.32-.685-.76-.815-1.276a2.068 2.068 0 0 1 .006-1.02c.068-.248.122-.5.163-.754.021-.19.023-.382.005-.572a8.003 8.003 0 0 0-.04-.425c-.014-.122-.028-.242-.043-.343-.035-.348-.186-.635-.35-.94-.083-.154-.166-.309-.243-.467a1.948 1.948 0 0 1-.17-1.016c.012-.151.035-.302.069-.45.058-.257.171-.497.333-.704.128-.167.258-.333.383-.504.17-.239.301-.502.39-.781.052-.152.08-.306.125-.458.097-.323.09-.655.061-.987a70.21 70.21 0 0 0-.036-.409c-.045-.5.103-.948.368-1.364.173-.281.414-.514.702-.675.188-.104.375-.21.559-.32.25-.154.471-.35.656-.577.28-.333.483-.723.596-1.143.034-.124.077-.246.112-.37.182-.646.97-1.387 1.81-1.456.214-.018.426-.058.639-.087a1.522 1.522 0 0 0 1.02-.583c.122-.153.247-.303.358-.464.384-.557.93-.839 1.583-.94.29-.045.574.008.858.071.24.053.482.096.725.134.33.051.636-.04.92-.2.198-.111.391-.23.578-.358.6-.41 1.251-.468 1.938-.287.165.048.322.122.465.217.185.116.367.237.554.351.243.141.506.245.78.307.152.038.305.052.456.084.36.077.715.032 1.07-.032.23-.042.46-.1.695-.086.692.042 1.28.302 1.71.862.125.164.234.341.352.511.181.26.405.487.66.673.135.1.28.18.417.274.268.184.574.279.887.352.11.025.22.051.331.074.636.134 1.09.516 1.435 1.048.16.244.224.52.28.801.044.238.1.473.168.705.062.164.135.323.22.477.03.063.063.125.095.187.01.02.02.041.033.06.063.084.132.164.192.25.173.237.383.444.623.613.107.08.213.159.323.234.454.312.71.756.854 1.276.105.376.076.748-.012 1.123-.048.205-.08.413-.113.621a1.808 1.808 0 0 0 .026.652c-.024.173.06.327.086.49.048.298.178.565.33.822l.258.432c.242.406.295.85.256 1.31Z"/><path d="M36.48 14.987c-.002-4.48-3.638-8.09-8.067-8.11-4.512-.018-8.135 3.66-8.142 8.093-.007 4.433 3.6 8.12 8.102 8.12 4.467.003 8.107-3.637 8.107-8.103Zm-8.125 7.449c-4.13-.01-7.434-3.38-7.429-7.457a7.458 7.458 0 0 1 7.452-7.447c4.17.007 7.453 3.414 7.447 7.464-.006 4.04-3.29 7.45-7.47 7.44ZM36.916 9.982l-.408.142.034.114c.063.184.13.367.19.553a.165.165 0 0 0 .135.123c.586.148 1.171.302 1.756.454.04.01.079.022.118.034l.002.027c-.194.067-.386.138-.58.203-.198.065-.392.146-.598.198l-.078-.193-.411.145.337.968.413-.143-.084-.264c.517-.183 1.027-.36 1.54-.535l.102.26.411-.143-.03-.107c-.064-.184-.134-.367-.19-.554a.188.188 0 0 0-.16-.142c-.594-.146-1.188-.296-1.782-.446-.034-.008-.067-.02-.1-.03l-.002-.027 1.194-.413.081.189.412-.143-.33-.953-.413.143.074.252-1.54.533-.093-.245ZM35.029 7.467l-.34.265c.022.032.038.058.057.082.124.16.253.318.373.481a.161.161 0 0 0 .167.072c.183-.018.366-.03.549-.044l1.074-.084c.102-.007.206-.012.309-.018l.01.025-.981.766-.142-.163-.342.268.632.81.343-.268-.164-.226c.431-.338.855-.672 1.287-1.003l.177.215.342-.268c-.024-.035-.04-.061-.058-.085-.127-.164-.256-.326-.38-.49a.146.146 0 0 0-.148-.065c-.568.051-1.136.097-1.703.144-.088.007-.176.011-.264.016a1.386 1.386 0 0 1-.013-.024c.332-.258.662-.52 1-.779l.136.153.344-.267-.621-.796-.346.27c.058.077.105.142.156.212L35.196 7.67l-.167-.203ZM17.47 11.83c.522.18 1.035.348 1.546.53l-.077.248.413.14.345-1.012-.413-.14-.097.25-1.546-.527c.11-.343.223-.672.341-1.006l1.55.527-.079.252.416.141.342-1.013-.413-.14-.093.25-1.549-.527.08-.256-.414-.139-.858 2.527.411.14.094-.245ZM28.779 5.344c.19.012.381.029.573.03a.735.735 0 0 0 .734-.599c.046-.225.008-.427-.175-.585a.173.173 0 0 1-.028-.039c.06-.054.114-.112.164-.174.114-.166.12-.354.077-.54-.077-.335-.344-.555-.706-.584-.362-.029-.724-.05-1.086-.075-.042-.003-.084 0-.132 0-.021.142-.03.286-.024.43l.246.034c-.035.548-.067 1.082-.11 1.622h-.257l-.025.424c.038.005.06.01.083.011.222.016.444.032.666.045Zm.187-2.073c.145.01.277.01.407.028.16.023.258.23.195.398a.249.249 0 0 1-.267.181c-.109-.004-.218-.014-.326-.023a.314.314 0 0 1-.05-.014l.04-.57Zm-.07 1.027c.159.01.298.018.437.029.023.002.046.01.066.02.113.054.169.201.136.355a.263.263 0 0 1-.267.228c-.124-.004-.248-.016-.372-.026a.167.167 0 0 1-.04-.018l.04-.588ZM32.782 5.89c-.087.12-.168.235-.245.36l.876.603.247-.36-.215-.16.49-.713c.016.052.026.076.03.102.059.31.113.622.176.931a.247.247 0 0 1-.047.218c-.073.095-.137.197-.21.305l.678.466.268-.39a.457.457 0 0 0-.076-.059.196.196 0 0 1-.107-.168c-.053-.311-.11-.622-.166-.933a.813.813 0 0 1-.005-.104c.056-.009.102-.018.148-.023.248-.027.497-.05.745-.08.13-.017.257-.042.363.084l.273-.398-.697-.478c-.082.117-.157.22-.227.329a.161.161 0 0 1-.132.079c-.303.032-.605.07-.907.106-.032.001-.063 0-.095-.004l.421-.613.227.141.247-.36-.881-.604-.247.36.203.153c-.116.213-.864 1.285-.935 1.339l-.2-.13ZM18.85 8.652l1.3.904-.144.223.358.25 1.142-1.646-.732-.508-.3.432.369.26-.383.55-.495-.346.282-.418-.38-.263-.291.411-.424-.295c.132-.19.251-.37.383-.547l.297.199.297-.432-.695-.482-1.142 1.644.395.275.162-.211ZM26.35 5.56c.436.002.762-.146.984-.408.487-.573.393-1.475-.203-1.945a1.165 1.165 0 0 0-1.591.115c-.376.395-.455 1.043-.182 1.549.23.428.588.665.993.69Zm-.497-1.789a.604.604 0 0 1 .915-.176.94.94 0 0 1 .234 1.116.609.609 0 0 1-.969.168.92.92 0 0 1-.284-.681.84.84 0 0 1 .104-.427ZM30.961 5.687a1.148 1.148 0 0 0 1.448-.054c.047-.043.086-.095.135-.149l-.444-.3c-.035.03-.058.05-.083.069-.362.283-.839.13-.972-.311a.838.838 0 0 1-.013-.44c.065-.276.208-.496.47-.62.288-.138.662-.03.773.246a.37.37 0 0 0 .291.242c.027.006.052.018.078.026l.183.054.17-.514c-.089-.03-.165-.06-.243-.082a.253.253 0 0 1-.162-.122.706.706 0 0 0-.281-.274 1.16 1.16 0 0 0-1.006-.063c-.522.203-.863.745-.838 1.327.016.397.173.725.494.965ZM22.024 7.783c.53-.112.968-.638.898-1.24a.583.583 0 0 0-.085-.279l-.475.223.016.096a.595.595 0 0 1-.684.7c-.415-.057-.766-.463-.761-.882.004-.371.316-.672.686-.601a.212.212 0 0 0 .207-.064c.068-.064.142-.122.212-.184.022-.02.041-.043.065-.069l-.35-.405c-.08.067-.148.123-.215.183a.203.203 0 0 1-.136.053.813.813 0 0 0-.373.085c-.21.11-.38.28-.488.491-.233.477-.18.938.13 1.357.335.451.79.655 1.354.536ZM23.072 4.915l-.137-.298.29-.14.723 1.485-.232.124c.067.135.124.265.195.39l.488-.238c.155-.077.316-.143.467-.235l-.19-.386-.243.11-.724-1.489.33-.156.149.29.474-.231-.33-.678-2.062 1.004.33.677.471-.229ZM29.88 25.517l.256-.02v-.383h-.107c-.164.007-.328.018-.491.02a.179.179 0 0 0-.163.087c-.15.22-.305.435-.458.651-.02.027-.043.051-.068.081l-.056-.06c-.18-.211-.36-.422-.537-.635a.142.142 0 0 0-.13-.059c-.12.007-.242.007-.363.013-.08.003-.16.013-.238.02 0 .077-.002.14.001.202.003.06.013.12.02.18h.244l.03.73-.255.02.02.387.86-.039v-.378l-.177-.016-.023-.439.029-.01.605.689.276-.378c.088-.12.172-.245.266-.36l.027.01.019.44-.165.02.022.385.857-.04v-.39h-.27l-.03-.728ZM30.89 24.917c-.018.017-.037.031-.064.054a.296.296 0 0 1 .07-.302.718.718 0 0 1 .315-.194c.13-.043.261-.082.391-.123.05-.016.1-.034.154-.053l-.125-.443-.34.095a.055.055 0 0 0-.034.025c.012.085-.06.08-.105.098-.149.05-.288.122-.414.214-.253.2-.377.461-.314.781.053.256.121.508.203.756a.768.768 0 0 0 .154.259c.318.367.864.284 1.148.025.267-.244.33-.613.164-.967a.738.738 0 0 0-1.203-.225Zm.502 1.011c-.215.006-.41-.194-.412-.422a.402.402 0 0 1 .391-.399c.211 0 .376.19.378.437a.367.367 0 0 1-.357.384ZM36.252 23.15l-.472-.562.159-.15-.247-.293-.67.566.247.293.17-.13.123.15-.512.43-.126-.155.155-.133-.248-.296-.672.565.248.294.18-.137.472.564-.165.153.247.294.671-.565-.248-.295-.165.128-.157-.19.514-.432.155.19-.155.145.247.294.67-.566-.246-.293-.175.13ZM34.278 24.678l-.333-.647.155-.096-.18-.341c-.147.077-.283.152-.424.217a.19.19 0 0 0-.118.157c-.058.33-.122.659-.185.988a.963.963 0 0 1-.032.097l-.252-.488.153-.097-.175-.34-.724.376.176.34.176-.075.336.65-.158.098c.057.121.113.23.177.338.148-.076.281-.151.42-.213a.211.211 0 0 0 .13-.175c.059-.322.124-.643.188-.964.009-.03.02-.061.033-.09.089.17.171.316.24.471l-.158.1.177.339.724-.377-.177-.336-.169.068ZM19.364 20.587l.338-.172-.785-1.546c-.117.051-.23.11-.34.174l.092.2c-.124.057-.235.114-.351.158-.196.074-.35.023-.47-.147-.025-.034-.047-.069-.076-.11l-.337.174c.043.084.078.154.115.223a.617.617 0 0 0 .687.327c.18-.035.355-.096.518-.18.037-.019.075-.033.117-.052.066.13.13.243.184.37l-.662.335-.103-.192c-.19.073-.288.13-.335.194l.412.814a2.7 2.7 0 0 0 .345-.173l-.115-.246c.226-.115.438-.227.659-.331l.107.18ZM24.713 24.85c-.046.118-.162.15-.255.211a.063.063 0 0 1-.044-.005c-.043-.016-.085-.035-.136-.056l.224-.584-.633-.246-.137.36.108.046.108.05-.267.685-.225-.079-.14.36.78.304.14-.357-.14-.071.07-.17a.196.196 0 0 1 .196.163c.056.182.122.362.188.541.01.037.031.069.062.09.109.051.222.09.342.138l.14-.361c-.054-.022-.098-.037-.14-.058a.149.149 0 0 1-.07-.054c-.061-.138-.116-.279-.177-.426.141-.081.268-.157.398-.226a.156.156 0 0 1 .099.004c.055.014.107.036.167.057l.138-.358-.675-.262-.12.305ZM39.79 15.86c-.102-.004-.204-.001-.305-.001-.17-.001-.197-.02-.25-.186a599.338 599.338 0 0 0-.09-.278.138.138 0 0 0-.134-.096.135.135 0 0 0-.133.099c-.036.103-.068.207-.103.31-.042.124-.075.149-.203.15-.11.002-.219-.001-.328.002a.144.144 0 0 0-.155.1c-.02.065 0 .117.068.171.086.068.174.132.26.2.108.082.122.123.084.251-.032.108-.07.215-.101.324a.14.14 0 0 0 .053.176.138.138 0 0 0 .173-.014l.2-.145c.175-.129.195-.13.368-.005.067.048.133.097.2.143.073.049.13.05.184.01.055-.04.067-.093.043-.18l-.017-.055c-.028-.085-.057-.17-.083-.256-.035-.118-.02-.167.08-.244.088-.07.178-.138.269-.206a.148.148 0 0 0 .072-.113.147.147 0 0 0-.04-.113.144.144 0 0 0-.113-.044ZM17.854 16.872c.084.057.165.118.248.176.09.062.145.068.203.022.071-.056.06-.128.036-.202-.031-.092-.06-.185-.089-.279-.04-.134-.028-.175.083-.26.09-.07.182-.136.27-.207.084-.069.093-.16.018-.219a.242.242 0 0 0-.129-.042c-.105-.006-.21-.001-.316-.002-.129-.002-.16-.025-.203-.15-.035-.103-.067-.207-.102-.31a.14.14 0 0 0-.266-.005c-.01.025-.018.05-.027.077l-.087.266a.159.159 0 0 1-.166.122h-.351a.154.154 0 0 0-.16.096c-.025.064-.002.12.073.18.083.065.168.128.251.192.116.089.128.128.084.27-.032.101-.068.2-.094.302a.222.222 0 0 0 .005.134c.035.08.127.096.209.04.094-.062.183-.132.275-.197a.172.172 0 0 1 .235-.004ZM38.461 20.144c-.227-.119-.447-.231-.665-.362l.126-.224.26.127.204-.382-.588-.315-.87 1.624c.2.108.389.214.589.314l.202-.38-.254-.144.122-.222c.226.122.447.234.661.36l-.102.213.338.181.449-.836-.34-.18-.132.226ZM37.595 21.591l-.165-.127c-.12-.093-.236-.193-.362-.278-.22-.149-.43-.135-.636.033a1.067 1.067 0 0 0-.322.44.93.93 0 0 0-.08.37l.288.062.035-.112a.842.842 0 0 1 .263-.395c.111-.088.204-.078.307.027-.056.06-.107.114-.157.17a.895.895 0 0 0-.231.387.431.431 0 0 0 .139.455.426.426 0 0 0 .48.082.88.88 0 0 0 .227-.159.59.59 0 0 0 .188-.396.216.216 0 0 0 .099-.022c.122-.146.238-.297.362-.452l-.301-.24-.134.155Zm-.333.551a.593.593 0 0 1-.107.15.16.16 0 0 1-.254-.195.759.759 0 0 1 .075-.103c.05-.064.102-.127.154-.19a.106.106 0 0 1 .027-.015c.178.119.194.169.105.353ZM19.484 21.549l.7.884a1.21 1.21 0 0 0 .31-.32.676.676 0 0 0 .111-.34c.007-.32-.147-.556-.413-.711-.518-.304-1.09.085-1.2.54a.739.739 0 0 0-.017.255c.043.367.355.71.732.809l.126-.288c-.042-.029-.079-.05-.11-.078-.078-.064-.157-.128-.229-.2a.428.428 0 0 1-.125-.27.278.278 0 0 1 .115-.281Zm.66-.073c.115.143.111.269-.02.405l-.395-.5c.151-.09.298-.053.416.095ZM26.318 24.936a.796.796 0 0 0-.745.505.8.8 0 0 0-.056.311c0 .425.305.794.831.798.539.003.795-.438.795-.808.003-.453-.354-.802-.825-.806Zm.01 1.212a.373.373 0 0 1-.357-.238.374.374 0 0 1-.026-.149c-.002-.245.163-.426.386-.425a.362.362 0 0 1 .359.233c.018.048.025.1.021.15-.002.287-.205.444-.383.429ZM22.578 23.465c-.41-.01-.809.337-.816.826-.006.425.391.799.835.802.43.002.797-.371.799-.816.002-.438-.37-.801-.818-.812Zm-.014 1.22a.375.375 0 0 1-.373-.384c0-.23.188-.431.403-.433a.382.382 0 0 1 .383.375c-.002.23-.198.44-.413.441ZM22.093 23.174a1.048 1.048 0 0 0-.1-.104.428.428 0 0 1-.147-.204.758.758 0 0 0-.243-.323c-.247-.208-.523-.263-.818-.134a.797.797 0 0 0-.504.718c-.03.5.451.927.949.85a.42.42 0 0 0 .247-.101c-.035-.056-.068-.109-.102-.16l-.103-.16c-.072.013-.146.02-.22.021a.382.382 0 0 1-.352-.426c.028-.227.245-.404.459-.376a.43.43 0 0 1 .358.366.2.2 0 0 0 .033.106c.082.082.172.157.264.239l.28-.312ZM40.095 10.71a.3.3 0 0 1-.123-.062.376.376 0 0 1-.051-.505l.032-.046-.129-.366c-.176.134-.297.284-.31.499a.916.916 0 0 0 .214.65c.141.172.331.232.569.215-.038-.109-.073-.2-.099-.292a.119.119 0 0 0-.103-.093Z"/><path d="M30.23 15.438a4.521 4.521 0 0 0-.441-.215c-.074-.034-.153-.055-.237-.084.005-.082.01-.16.013-.237.006-.16-.069-.236-.228-.247a1.698 1.698 0 0 1-.289-.037c-.433-.104-.791-.344-1.122-.63-.056-.05-.061-.09-.017-.166.09-.155.176-.314.28-.46.36-.498.775-.952 1.24-1.353.296-.261.602-.51.959-.687a.3.3 0 0 0 .075-.055c.158-.157.317-.312.472-.473a.324.324 0 0 0 .08-.349.322.322 0 0 0-.066-.106 11.197 11.197 0 0 0-.538-.54.325.325 0 0 0-.457.007c-.029.026-.056.055-.083.082l-2.841 2.843a.254.254 0 0 1-.178.097.38.38 0 0 0-.257.126c-.279.28-.56.556-.836.838a.425.425 0 0 0-.101.478.428.428 0 0 0 .097.142c.179.186.363.367.547.548a.386.386 0 0 0 .34.122c.114-.02.166.032.21.126l-.12.053c-.183.07-.352.17-.503.293a.781.781 0 0 0-.293.624c.003 1.258.002 2.516.002 3.773a.548.548 0 0 0 .012.128.197.197 0 0 0 .254.138.198.198 0 0 0 .089-.06.225.225 0 0 0 .053-.162v-.574c0-.033.005-.066.01-.108l.073.03c.268.139.554.238.85.295.03.007.06.011.092.012a.2.2 0 0 0 .18-.297.2.2 0 0 0-.105-.09c-.043-.017-.091-.02-.136-.035-.196-.063-.395-.12-.588-.195a1.103 1.103 0 0 1-.256-.16.302.302 0 0 1-.122-.266c.005-.187.001-.375.002-.562a.707.707 0 0 1 .012-.09c.124.06.233.12.348.168.51.211 1.044.284 1.591.284a.28.28 0 0 0 .047-.003.199.199 0 0 0 .16-.138.189.189 0 0 0-.045-.195.218.218 0 0 0-.168-.068c-.195-.01-.39-.02-.584-.04a2.997 2.997 0 0 1-.86-.217 1.292 1.292 0 0 1-.368-.225.312.312 0 0 1-.127-.204c-.008-.174-.002-.348-.002-.54.101.054.184.102.272.141a3.114 3.114 0 0 0 .828.248 4.769 4.769 0 0 0 .861.072 4.592 4.592 0 0 0 1.16-.134 3.024 3.024 0 0 0 .54-.19c.086-.04.17-.086.256-.13a.237.237 0 0 1 .011.039l.002 1.078a.285.285 0 0 1-.09.21c-.058.058-.121.11-.189.155a1.836 1.836 0 0 1-.492.214c-.075.021-.151.039-.226.061a.19.19 0 0 0-.148.163.2.2 0 0 0 .257.226c.276-.058.54-.157.786-.296.028-.016.058-.028.102-.05v1.356a.863.863 0 0 0 .004.117.2.2 0 0 0 .395-.003c.004-.043.005-.086.004-.129v-2.683c0-.367-.003-.734 0-1.101a.667.667 0 0 0-.193-.487 1.286 1.286 0 0 0-.26-.216Zm-1.096-.385a.514.514 0 0 1 0 .092 1.477 1.477 0 0 1-.434.8.23.23 0 0 1-.177.071c-.241-.004-.482-.001-.736-.001a3.467 3.467 0 0 0-.708-1.188l.554-.552c.431.37.91.676 1.501.778Zm1.079-4.888.302.307c.024.024.047.05.077.082-.021.025-.038.05-.059.071a2.675 2.675 0 0 1-.612.5c-.31.177-.578.413-.84.653-.438.39-.835.824-1.184 1.294-.076.104-.146.211-.212.308l-.345-.343 2.873-2.872Zm-3.614 4.519c-.19-.187-.382-.378-.56-.561l.88-.88c.202.17.39.358.562.559-.044.078-.775.814-.882.882Zm3.634 1.561a.984.984 0 0 1-.202.193c-.195.13-.414.221-.644.268-.807.188-1.61.182-2.402-.076a1.462 1.462 0 0 1-.456-.236c-.239-.188-.242-.364-.007-.552.168-.128.36-.221.565-.274a.157.157 0 0 1 .043.002c.089.133.16.277.213.428-.038.01-.067.015-.095.025a.208.208 0 0 0-.142.207.205.205 0 0 0 .184.184c.035.003.07.003.105.002h1.839a.84.84 0 0 0 .105-.003.2.2 0 0 0-.003-.397c-.04-.005-.082-.006-.133-.01l.255-.465c.251.074.495.163.694.344.032.029.06.062.083.098a.21.21 0 0 1-.002.262Z"/><path d="M30.945 14.604c-.105-.01-.21-.01-.314.002a.198.198 0 0 0-.115.338.208.208 0 0 0 .136.06c.046.004.093 0 .14 0 .043 0 .086.003.129 0a.206.206 0 0 0 .201-.19.197.197 0 0 0-.177-.21ZM29.433 13.102a.195.195 0 0 0-.21.176 1.39 1.39 0 0 0-.002.303.198.198 0 0 0 .217.183.203.203 0 0 0 .186-.205c.002-.042 0-.085 0-.128s.002-.086 0-.129a.205.205 0 0 0-.19-.2ZM30.468 13.537a.163.163 0 0 0-.07.023c-.099.086-.192.18-.278.279-.055.068-.026.171.039.233a.184.184 0 0 0 .245.021c.087-.072.168-.152.24-.238a.175.175 0 0 0 .013-.208.206.206 0 0 0-.19-.11ZM35.566 14.866a.1.1 0 0 0-.1.116.099.099 0 0 0 .144.089.102.102 0 0 0 .057-.1.105.105 0 0 0-.028-.074.101.101 0 0 0-.073-.031ZM21.264 13.996a.105.105 0 0 0 .104-.101.112.112 0 0 0-.097-.098.103.103 0 0 0-.095.063.101.101 0 0 0-.008.039.102.102 0 0 0 .096.097ZM23.6 20.26a.105.105 0 0 0-.104.1.113.113 0 0 0 .097.099.103.103 0 0 0 .102-.103.098.098 0 0 0-.094-.096ZM21.37 16.09a.1.1 0 0 0-.172-.066.1.1 0 0 0 .004.142.1.1 0 0 0 .141-.005.099.099 0 0 0 .027-.071ZM33.557 19.87a.11.11 0 0 0-.101.106.1.1 0 0 0 .168.067.098.098 0 0 0 .004-.14.103.103 0 0 0-.071-.033ZM33.926 19.461a.1.1 0 0 0-.102.09.104.104 0 0 0 .096.11.11.11 0 0 0 .103-.093.105.105 0 0 0-.097-.107ZM24.458 9.053a.105.105 0 0 0 .098-.096.107.107 0 0 0-.102-.104.105.105 0 0 0-.097.096.102.102 0 0 0 .029.073.1.1 0 0 0 .072.03ZM25.43 21.455a.097.097 0 0 0-.09.1.104.104 0 0 0 .097.098.109.109 0 0 0 .103-.104.104.104 0 0 0-.11-.094ZM31.81 21.203a.1.1 0 0 0-.096.097.1.1 0 0 0 .091.102.104.104 0 0 0 .109-.097.106.106 0 0 0-.105-.102ZM27.018 21.949a.1.1 0 1 0-.011.2.1.1 0 0 0 .01-.2ZM25.932 8.32a.115.115 0 0 0 .1-.097.104.104 0 0 0-.103-.104.096.096 0 0 0-.071.032.1.1 0 0 0-.026.074.107.107 0 0 0 .1.094ZM28.631 7.897a.103.103 0 0 0 .102-.102.102.102 0 0 0-.033-.071.099.099 0 0 0-.074-.026.106.106 0 0 0-.092.101.111.111 0 0 0 .097.098ZM21.94 18.084a.105.105 0 0 0-.108.1.108.108 0 0 0 .096.1.1.1 0 0 0 .011-.2ZM28.657 22.07a.108.108 0 0 0-.101.095.104.104 0 0 0 .1.105.1.1 0 0 0 .1-.093.105.105 0 0 0-.1-.107ZM29.733 8.02a.106.106 0 0 0 .096-.1.105.105 0 0 0-.106-.101.102.102 0 0 0-.094.099.102.102 0 0 0 .03.073.102.102 0 0 0 .074.028ZM35.05 17.571a.104.104 0 0 0-.102.104.098.098 0 0 0 .095.096.103.103 0 0 0 .104-.1.114.114 0 0 0-.097-.1ZM35.443 14.413a.102.102 0 0 0 .095.099.105.105 0 0 0 .106-.1.109.109 0 0 0-.03-.067.108.108 0 0 0-.066-.033.106.106 0 0 0-.105.101ZM32.302 20.922a.1.1 0 1 0-.033.198.1.1 0 0 0 .033-.198ZM35.545 15.434a.108.108 0 0 0-.1.095.1.1 0 1 0 .1-.095ZM34.258 19.021a.1.1 0 0 0-.101.1.1.1 0 0 0 .1.101.105.105 0 0 0 .1-.093.106.106 0 0 0-.099-.108ZM24.945 21.206a.104.104 0 0 0-.098.098.1.1 0 0 0 .093.101.103.103 0 0 0 .106-.102.11.11 0 0 0-.1-.097ZM30.81 21.653a.107.107 0 0 0-.1.094.1.1 0 0 0 .165.08.1.1 0 0 0 .035-.067.108.108 0 0 0-.1-.107ZM29.751 21.947a.101.101 0 0 0-.072.03.1.1 0 0 0-.028.072.103.103 0 0 0 .096.097.108.108 0 0 0 .102-.105.103.103 0 0 0-.098-.095ZM26.993 8.023a.1.1 0 0 0 .098-.094.106.106 0 0 0-.1-.106.11.11 0 0 0-.1.097.104.104 0 0 0 .03.073.102.102 0 0 0 .072.03ZM31.3 8.512a.105.105 0 0 0 .102-.104.1.1 0 0 0-.105-.098.102.102 0 0 0-.07.034.102.102 0 0 0-.026.073.105.105 0 0 0 .1.095ZM24.918 8.77a.104.104 0 0 0 .075-.025.1.1 0 0 0 .03-.108.101.101 0 0 0-.09-.066.1.1 0 0 0-.095.057.1.1 0 0 0-.01.038.103.103 0 0 0 .09.104ZM24.008 9.372a.11.11 0 0 0 .1-.095.103.103 0 0 0-.102-.104.098.098 0 0 0-.097.093.104.104 0 0 0 .099.106ZM22.187 11.418a.1.1 0 0 0 .002-.2.101.101 0 0 0-.101.098c0 .027.01.053.028.072a.1.1 0 0 0 .07.03ZM21.921 11.903a.107.107 0 0 0 .105-.102.1.1 0 0 0-.2.004.104.104 0 0 0 .095.098ZM21.703 12.405a.098.098 0 0 0 .067-.168.103.103 0 0 0-.072-.032.113.113 0 0 0-.098.098.102.102 0 0 0 .103.102ZM21.36 13.456a.1.1 0 0 0 .099-.056.1.1 0 0 0 .01-.04.102.102 0 0 0-.1-.104.107.107 0 0 0-.1.096.105.105 0 0 0 .09.104ZM35.378 13.864a.109.109 0 0 0 .105.101.103.103 0 0 0 .094-.109.099.099 0 0 0-.102-.089.107.107 0 0 0-.097.097ZM35.276 13.324a.103.103 0 0 0 .065.095.103.103 0 0 0 .04.006.107.107 0 0 0 .09-.105.1.1 0 0 0-.1-.093.095.095 0 0 0-.089.06.093.093 0 0 0-.006.037ZM34.562 18.56a.102.102 0 0 0-.103.092.097.097 0 0 0 .005.04.097.097 0 0 0 .051.057.098.098 0 0 0 .078.004.1.1 0 0 0 .064-.092.107.107 0 0 0-.095-.101ZM25.424 8.523a.098.098 0 0 0 .09-.117.098.098 0 0 0-.13-.072.098.098 0 0 0-.063.085.107.107 0 0 0 .03.074.105.105 0 0 0 .073.03ZM34.553 11.393a.1.1 0 0 0 .063-.17.1.1 0 0 0-.068-.03.098.098 0 0 0-.07.03.1.1 0 0 0-.02.11.1.1 0 0 0 .095.06ZM22.49 10.953a.101.101 0 0 0 .098-.097.105.105 0 0 0-.068-.093.104.104 0 0 0-.04-.007.1.1 0 0 0-.091.104.1.1 0 0 0 .1.093ZM23.184 10.105a.102.102 0 0 0 .102-.09.104.104 0 0 0-.096-.11.1.1 0 0 0-.006.2ZM22.837 19.466a.1.1 0 0 0-.073.03.1.1 0 0 0-.029.074.1.1 0 0 0 .099.095.103.103 0 0 0 .097-.098c0-.025-.01-.05-.028-.068a.105.105 0 0 0-.066-.033ZM32.715 9.353a.1.1 0 0 0 .105-.097.101.101 0 0 0-.061-.095.102.102 0 0 0-.039-.007.1.1 0 0 0-.005.2ZM24.027 20.61a.1.1 0 0 0-.097.061.104.104 0 0 0-.008.04.108.108 0 0 0 .099.098.103.103 0 0 0 .098-.097.097.097 0 0 0-.092-.102ZM31.802 8.754a.101.101 0 0 0 .093-.102.1.1 0 0 0-.2.003.101.101 0 0 0 .107.099ZM26.481 21.826a.1.1 0 0 0-.105.088.105.105 0 0 0 .1.108.106.106 0 0 0 .1-.096.101.101 0 0 0-.095-.1ZM21.182 15.095a.1.1 0 0 0 .007-.2.102.102 0 0 0-.102.09.106.106 0 0 0 .095.11ZM30.27 8.14a.105.105 0 0 0 .096-.1.107.107 0 0 0-.1-.096.098.098 0 0 0-.073.032.101.101 0 0 0-.026.075.098.098 0 0 0 .103.09ZM27.542 7.94a.1.1 0 0 0 .06-.17.097.097 0 0 0-.136.002.104.104 0 0 0-.032.067.106.106 0 0 0 .108.1ZM28.086 7.899a.11.11 0 0 0 .098-.097.103.103 0 0 0-.102-.103.098.098 0 0 0-.095.095.1.1 0 0 0 .06.096.1.1 0 0 0 .039.009ZM35.231 12.894a.1.1 0 0 0 .093-.101.1.1 0 0 0-.096-.099.102.102 0 0 0-.093.068.104.104 0 0 0-.006.04.101.101 0 0 0 .102.092ZM35.231 17.054a.1.1 0 0 0-.072.165.1.1 0 0 0 .064.034.102.102 0 0 0 .11-.095.104.104 0 0 0-.102-.104ZM35.03 12.376a.1.1 0 0 0 .078-.169.097.097 0 0 0-.137-.003.098.098 0 0 0-.005.137c.016.02.04.032.065.035ZM33.153 9.704a.104.104 0 0 0 .09-.105.097.097 0 0 0-.098-.095.1.1 0 1 0 .008.2ZM34.245 10.929a.097.097 0 0 0 .099-.093.098.098 0 0 0-.09-.104.098.098 0 0 0-.104.09.096.096 0 0 0 .023.075.095.095 0 0 0 .072.032ZM22.817 10.515a.098.098 0 0 0 .07-.166.097.097 0 0 0-.167.067.103.103 0 0 0 .097.099ZM33.541 10.082a.097.097 0 0 0 .1-.093.103.103 0 0 0-.09-.105.101.101 0 0 0-.097.061.099.099 0 0 0-.008.04.097.097 0 0 0 .059.09.096.096 0 0 0 .036.008ZM33.913 10.492a.097.097 0 0 0 .096-.096.093.093 0 0 0-.093-.098.096.096 0 0 0-.074.024.096.096 0 0 0-.032.071.098.098 0 0 0 .03.072.098.098 0 0 0 .073.027ZM34.822 18.078a.1.1 0 0 0-.101.093.102.102 0 0 0 .104.101.098.098 0 0 0 .094-.099.1.1 0 0 0-.097-.095ZM30.797 8.305a.096.096 0 0 0 .067-.032.098.098 0 0 0-.006-.137.095.095 0 0 0-.07-.026.103.103 0 0 0-.098.096.099.099 0 0 0 .107.099ZM26.451 8.152a.102.102 0 0 0 .103-.103.097.097 0 0 0-.095-.095.1.1 0 0 0-.105.1.11.11 0 0 0 .098.098ZM35.378 16.524a.098.098 0 0 0-.088.063.099.099 0 0 0 .023.105.098.098 0 0 0 .165-.072.104.104 0 0 0-.1-.096ZM30.279 21.822a.097.097 0 0 0-.09.102.094.094 0 0 0 .096.093c.026 0 .05-.01.068-.027a.097.097 0 0 0-.074-.168ZM23.189 19.88a.097.097 0 0 0-.087.068.096.096 0 0 0 .034.105.096.096 0 0 0 .073.02.098.098 0 0 0 .066-.036.095.095 0 0 0 .01-.108.1.1 0 0 0-.059-.046.101.101 0 0 0-.037-.003ZM27.553 22.032a.104.104 0 0 0-.097.098.099.099 0 0 0 .06.093.1.1 0 0 0 .13-.13.1.1 0 0 0-.093-.061ZM33.163 20.256a.1.1 0 0 0-.104.09.1.1 0 0 0 .03.074.102.102 0 0 0 .073.03.096.096 0 0 0 .096-.097.094.094 0 0 0-.058-.09.094.094 0 0 0-.037-.007ZM28.109 22.07a.1.1 0 0 0-.073.032.104.104 0 0 0-.028.075.098.098 0 0 0 .196-.006.104.104 0 0 0-.095-.1ZM32.73 20.606a.1.1 0 0 0-.095.1.102.102 0 0 0 .1.096.1.1 0 0 0 .099-.095.097.097 0 0 0-.064-.095.098.098 0 0 0-.04-.006ZM24.48 20.924a.101.101 0 0 0-.074.028.1.1 0 0 0-.03.073.094.094 0 0 0 .094.098.096.096 0 0 0 .1-.093.102.102 0 0 0-.09-.106ZM23.587 9.723a.102.102 0 0 0 .085-.14.1.1 0 0 0-.06-.054.097.097 0 0 0-.126.101.101.101 0 0 0 .101.093ZM21.197 14.542a.095.095 0 0 0 .075-.025.097.097 0 0 0 .032-.07.096.096 0 0 0-.091-.1.102.102 0 0 0-.108.096.1.1 0 0 0 .092.099ZM32.275 9.034a.094.094 0 0 0 .067-.03.094.094 0 0 0 .026-.07.097.097 0 0 0-.1-.095.1.1 0 0 0-.07.029.097.097 0 0 0-.02.11.098.098 0 0 0 .097.056ZM35.482 15.98a.102.102 0 0 0-.097.098.096.096 0 0 0 .092.101.095.095 0 0 0 .074-.027.097.097 0 0 0 .029-.074.104.104 0 0 0-.098-.097ZM31.325 21.45a.098.098 0 0 0-.074.027.097.097 0 0 0 .001.142.098.098 0 0 0 .07.026.098.098 0 0 0 .003-.195ZM21.472 16.629a.098.098 0 0 0-.166-.066.097.097 0 0 0 .002.14.102.102 0 0 0 .074.03.099.099 0 0 0 .09-.104ZM21.305 15.543a.098.098 0 0 0-.098-.096.102.102 0 0 0-.094.066.104.104 0 0 0-.006.04.1.1 0 0 0 .105.088.093.093 0 0 0 .093-.098ZM21.527 17.066a.097.097 0 0 0-.103.101.095.095 0 0 0 .03.068.095.095 0 0 0 .069.026c.025 0 .05-.01.068-.027a.098.098 0 0 0-.064-.168ZM22.492 19.03a.1.1 0 0 0-.062.169.097.097 0 0 0 .069.027.096.096 0 0 0 .068-.027.091.091 0 0 0 .029-.068.097.097 0 0 0-.03-.073.1.1 0 0 0-.074-.028ZM21.712 17.585a.092.092 0 0 0-.1.09.098.098 0 0 0 .11.104.098.098 0 0 0 .08-.072.098.098 0 0 0-.09-.122ZM34.82 11.873a.103.103 0 0 0 .093-.101.1.1 0 0 0-.102-.094.095.095 0 0 0-.09.058.094.094 0 0 0-.007.037.1.1 0 0 0 .03.074c.01.009.022.016.035.02a.098.098 0 0 0 .04.006ZM21.512 12.922a.095.095 0 0 0 .095-.062.098.098 0 0 0 .005-.04.096.096 0 0 0-.1-.092.096.096 0 0 0-.088.06.095.095 0 0 0-.006.037.097.097 0 0 0 .094.097ZM22.194 18.57a.095.095 0 0 0-.067.029.092.092 0 0 0-.026.068.097.097 0 1 0 .193-.007.095.095 0 0 0-.063-.085.095.095 0 0 0-.037-.005ZM25.952 21.66a.097.097 0 0 0-.098.105.092.092 0 0 0 .032.066.093.093 0 0 0 .069.023c.025 0 .05-.012.067-.03a.095.095 0 0 0 .026-.069.1.1 0 0 0-.028-.067.099.099 0 0 0-.068-.029ZM29.19 7.935a.1.1 0 0 0 .091-.102.098.098 0 0 0-.188-.034.093.093 0 0 0-.007.037.095.095 0 0 0 .03.072c.01.01.022.017.035.021a.098.098 0 0 0 .04.006ZM29.208 22.032a.098.098 0 1 0-.006.195.098.098 0 0 0 .006-.195ZM8.155 20.495c.826-1.58 1.728-3.138 2.47-4.769.816-1.796-.205-3.658-2.105-4.06-1.75-.37-3.363.833-3.577 2.668-.188 1.62 1.052 2.988 2.794 3.074.26.013.523.002.886.002l-1.804 3.085h1.336Zm-.135-4.05c-1.163.015-2.01-.783-2.016-1.903-.007-1.13.833-1.963 1.967-1.953 1.088.01 1.87.803 1.88 1.91.012 1.125-.747 1.931-1.83 1.946ZM2.837 11.71c-.613.286-1.041.47-1.455.683-.46.236-.905.499-1.382.764l.049 1.027 1.615-.792v6.216h-.74v.87h2.677v-.87h-.738s.004-2.758-.001-4.003c-.005-1.229.023-2.46-.025-3.895ZM12.258 8.554H.046v.592h12.212v-.592ZM12.258 22.993H.046v.591h12.212v-.591ZM59.08 8.554H45.154v.592H59.08v-.592ZM59.08 22.993H45.154v.591H59.08v-.591ZM45.996 18.133a2.616 2.616 0 1 0 3.957-2.242 2.341 2.341 0 1 0-2.683 0 2.612 2.612 0 0 0-1.274 2.242Zm1.204-4.158a1.412 1.412 0 1 1 1.47 1.408c-.02 0-.04-.003-.059-.003-.02 0-.038.003-.058.003a1.41 1.41 0 0 1-1.353-1.408Zm1.411 2.47a1.688 1.688 0 1 1 0 3.377 1.688 1.688 0 0 1 0-3.377ZM55.7 20.738c-.621 0-1.154-.16-1.597-.481-.443-.321-.797-.766-1.06-1.335l.753-.513c.205.445.465.797.78 1.056.315.248.703.373 1.163.373.494 0 .878-.14 1.15-.42.281-.29.422-.683.422-1.18 0-.61-.183-1.06-.55-1.35-.366-.29-.937-.435-1.712-.435v-.884c.707 0 1.244-.135 1.61-.404.367-.27.55-.673.55-1.21 0-.415-.124-.746-.371-.994-.247-.249-.605-.373-1.074-.373-.443 0-.822.135-1.137.404-.315.269-.541.636-.677 1.102l-.767-.435c.145-.414.34-.766.588-1.055a2.52 2.52 0 0 1 .882-.668c.34-.165.715-.248 1.124-.248.707 0 1.27.202 1.687.605.426.404.64.942.64 1.615 0 .414-.09.78-.27 1.102-.17.32-.408.574-.715.76a1.974 1.974 0 0 1-1.01.295v-.17c.622 0 1.134.212 1.534.636.41.424.614.994.614 1.708 0 .517-.103.962-.307 1.335a2.144 2.144 0 0 1-.882.869c-.383.197-.84.295-1.367.295Z"/></g><defs><clipPath id="a"><path fill="#fff" d="M0 0h59.134v30H0z"/></clipPath></defs></svg>