<svg viewBox="0 0 32 32" xmlns="http://www.w3.org/2000/svg" xml:space="preserve" style="fill-rule:evenodd;clip-rule:evenodd;stroke-linejoin:round;stroke-miterlimit:2"><path style="fill:none" d="M38.786 122.857h329.143V300H38.786z" transform="matrix(.09722 0 0 .18065 -3.77 -22.194)"/><path d="M30.941 17.998v.854H1.218v-.854h29.723ZM18.019 3.936l-1.046-.929c-.233-.207-.389-.311-.547-.311-.158 0-.316.104-.551.312l-1.353 1.203a756.575 756.575 0 0 1-3.152 2.79.603.603 0 0 1-.352.157c-2.318.009-4.636.01-6.953.008H2.576l-.029-.001 1.943-6.06h23.78l1.943 6.061h-1.789c-2.164 0-4.328.001-6.492-.01a.811.811 0 0 1-.478-.181c-1.151-1.007-2.293-2.023-3.435-3.039Zm-6.032 3.956c1.102-.991 2.211-1.975 3.318-2.959l1.024-.909.095-.08.107.093c.139.12.277.24.414.362l.867.77c1.035.918 2.071 1.836 3.101 2.761.228.204.465.296.769.296h.005c1.859-.007 3.721-.005 5.58-.005h1.984v8.685H3.508V8.221h2.014c1.871-.002 3.736-.002 5.602.007h.008c.333 0 .597-.104.855-.336Zm15.848 13.736h-5.278c-.509 0-.68.172-.681.682v6.703h-.74v-9.066h8.995v9.065h-1.483v-6.585c0-.641-.16-.799-.813-.799Zm-.26 1.071V29h-4.621v-6.301h4.621Zm-15.652 6.322V19.95h8.114v9.059h-.605l-.001-6.54c0-.56-.147-.706-.716-.706-1.792-.002-3.585-.002-5.378 0-.526 0-.678.151-.678.672v6.586h-.736Zm6.438-6.186v6.167h-4.625v-6.167h4.625Zm-8.83-1.072c-1.793-.002-3.585-.002-5.378 0-.564 0-.71.147-.71.712v6.537h-1.41v-9.064h8.791v9.063h-.608v-6.549c0-.555-.14-.699-.685-.699Zm-.397 1.073v6.167H4.513v-6.167h4.621Zm21.803 7.262v.855H1.227v-.855h29.71Zm1.071-.524c-.004-.328-.207-.531-.543-.544a4.721 4.721 0 0 0-.239-.002v-9.1a.435.435 0 0 1 .035-.002c.596-.013.75-.169.75-.754l.001-.373c.001-.415.003-.828-.002-1.242-.005-.429-.207-.63-.634-.636a37.008 37.008 0 0 0-.817-.002h-.21V8.221h.326c.285 0 .566-.026.697-.206.131-.181.069-.456-.017-.726L29.241.669c-.182-.568-.273-.634-.88-.634H4.416l-.08.001-.152-.001c-.293-.005-.505.139-.597.428l-.601 1.88A4420.42 4420.42 0 0 0 1.342 7.5c-.079.25-.019.41.044.501.066.093.201.207.477.218.157.006.312.004.469.003h.08v8.698l-.44-.001a68.75 68.75 0 0 0-1.203.002c-.409.005-.616.212-.62.617a88.608 88.608 0 0 0 0 1.786c.005.385.198.582.592.601.063.002.125.001.195.001v9.099a5.53 5.53 0 0 0-.053.003c-.598.016-.736.159-.736.762l-.001 1.446c.001.656.145.797.807.797h30.266l.069.001h.073c.033 0 .066 0 .099-.002.337-.017.542-.217.547-.538.008-.594.009-1.222.001-1.92Z" style="fill:#21a038;fill-rule:nonzero" transform="matrix(.9638 0 0 .9638 .503 .546)"/><path d="M22.141 15.29v-2.334h3.007v2.334h-3.007Zm.13-3.424c.152-.504.698-.93 1.266-.959a1.458 1.458 0 0 1 1.486.959h-2.752Zm-.54 4.493c.436.003.875.003 1.31.002l.574-.001.598.001.6.001c.251 0 .501-.001.752-.003.442-.003.658-.217.66-.654l.003-.738c.004-.861.008-1.75-.008-2.626-.023-1.377-1.178-2.492-2.579-2.492h-.014c-1.387.007-2.534 1.127-2.554 2.496-.015.924-.011 1.862-.006 2.771l.002.592c.001.435.218.648.662.651ZM10.693 12.954v2.333H7.754v-2.333h2.939Zm-2.855-1.1c.161-.512.706-.924 1.287-.947.67-.029 1.234.348 1.458.947H7.838Zm1.376-2.005h-.006c-1.374.003-2.508 1.112-2.531 2.472-.014.918-.011 1.851-.007 2.753l.003.642c.001.455.19.641.653.644.431.002.86.001 1.294.001l.588-.001.558.001h.558c.265 0 .532 0 .798-.002.434-.003.638-.203.64-.63l.003-.714c.005-.889.009-1.81-.009-2.714-.028-1.354-1.168-2.452-2.542-2.452ZM14.949 15.278v-2.334h2.939v2.334h-2.939Zm.101-3.415c.166-.527.714-.933 1.312-.95h.045c.632 0 1.19.386 1.39.95H15.05Zm-.528 4.496.75.003.584-.001.583-.001.554.001c.434 0 .864.001 1.295-.001.482-.001.671-.187.672-.661l.001-.512c.004-.923.008-1.878-.003-2.817-.018-1.364-1.143-2.517-2.458-2.519h-.004c-1.479 0-2.606 1.085-2.623 2.524-.011.966-.007 1.948-.004 2.897l.002.434c.001.449.202.651.651.653ZM16.436 7.482a.593.593 0 0 1-.402-.16.587.587 0 0 1-.18-.41.555.555 0 0 1 .561-.584h.011c.319 0 .573.245.58.562a.597.597 0 0 1-.57.592Zm-.019 1.057h.002a1.636 1.636 0 0 0 1.159-.485c.312-.312.483-.723.482-1.157a1.632 1.632 0 0 0-1.611-1.625h-.015c-.909 0-1.626.706-1.637 1.612-.004.442.165.858.478 1.174a1.6 1.6 0 0 0 1.142.481Z" style="fill:#21a038;fill-rule:nonzero" transform="matrix(.9638 0 0 .9638 .503 .687)"/></svg>