<svg viewBox="0 0 32 32" xmlns="http://www.w3.org/2000/svg" xml:space="preserve" style="fill-rule:evenodd;clip-rule:evenodd;stroke-linejoin:round;stroke-miterlimit:2"><path style="fill:none" d="M164.5 141.143h518.286v254.286H164.5z" transform="matrix(.06174 0 0 .12584 -10.157 -17.762)"/><path d="m25.572 11.63 1.221 1.221.7-1.927-1.921.706ZM11.983 24.644c-.511.409-.891.875-.722 1.573.122.506.457.837.971.947.7.15 1.152-.238 1.543-.72l-1.792-1.8ZM.047 14.227c.147-.171.285-.353.444-.513C4.894 9.308 9.298 4.904 13.703.499c.526-.525.786-.527 1.303-.01 2.24 2.239 4.479 4.478 6.717 6.718.095.096.191.194.266.305a.583.583 0 0 1-.066.77.583.583 0 0 1-.767.081 2.029 2.029 0 0 1-.307-.264c-2.063-2.061-4.126-4.123-6.188-6.186-.088-.088-.166-.185-.215-.24L2.33 13.789c.647 0 1.36.008 2.073-.01.1-.002.209-.119.294-.203 2.97-2.966 5.938-5.935 8.907-8.903l.176-.177c.434-.427.73-.425 1.17.011.163.161.324.324.487.486l6.915 6.917c.087.088.161.19.272.322.372-.381.692-.735 1.043-1.057.178-.165.393-.313.619-.398 1.303-.493 2.613-.966 3.923-1.443.456-.166.807-.04.916.347a.844.844 0 0 1-.025.482c-.49 1.37-.99 2.737-1.501 4.1-.059.16-.173.312-.294.434a1220.713 1220.713 0 0 1-4.551 4.552c-.101.102-.218.207-.348.256a.567.567 0 0 1-.678-.172c-.179-.21-.211-.452-.07-.692.072-.124.176-.231.278-.334a4028.57 4028.57 0 0 1 4.131-4.132l-1.755-1.755-11.328 11.328 1.747 1.751c.05-.046.133-.122.211-.2l3.58-3.579c.088-.088.181-.176.284-.241a.614.614 0 0 1 .77.093.61.61 0 0 1 .052.775c-.057.085-.13.161-.204.235-1.671 1.672-3.341 3.345-5.016 5.014-.925.922-2.07 1.102-3.163.509-1.298-.703-1.678-2.546-.763-3.703.077-.099.143-.217.242-.285.487-.337.529-.808.522-1.356-.028-2.145-.012-4.292-.011-6.437 0-.638.207-.846.841-.846 1.521-.001 3.042-.002 4.563.001.133 0 .273.004.401.041a.57.57 0 0 1 .435.581.57.57 0 0 1-.432.582 1.448 1.448 0 0 1-.4.043c-1.261.002-2.521.001-3.782.001h-.357v5.478l9.158-9.153-7.393-7.395c-.053.088-.1.213-.185.3-2.892 2.897-5.79 5.789-8.677 8.69-.279.279-.571.414-.967.399-.613-.024-1.229-.006-1.868-.006v15.813h9.103c.461.003.711.163.787.506.07.308-.079.541-.477.743H1.734c-.348-.193-.443-.495-.443-.883.008-5.262.006-10.525.006-15.788v-.386c-.485-.012-.989.091-1.25-.443v-.375ZM18.517 27.647c.167.149.363.305.535.483.305.316.313.682.038.941-.255.242-.619.221-.92-.066-.178-.17-.341-.356-.441-.461l-2.326 2.284h15.379V15.421l-2.32 2.322c.13.127.289.277.442.433.332.34.367.723.093.989-.278.267-.627.239-.963-.098-.161-.161-.299-.344-.419-.484-.572.571-1.092 1.087-1.662 1.654.157.137.347.284.513.454.304.311.322.684.064.942-.256.257-.633.238-.943-.063-.175-.17-.333-.361-.484-.527l-1.649 1.643c.177.157.376.311.547.489.302.315.311.686.042.943-.259.248-.614.233-.919-.059-.18-.172-.337-.368-.478-.525l-1.643 1.651c.147.129.327.271.487.432.322.323.352.701.092.965-.264.266-.644.245-.964-.081-.166-.168-.298-.369-.43-.536l-1.671 1.682Zm-4.97 4.455c-.562-.392-.587-.733-.086-1.234L30.82 13.507c.229-.229.464-.435.819-.294.365.144.411.45.411.794-.003 5.737-.005 11.474.003 17.211.001.388-.093.691-.442.884H13.547Z" style="fill:#22a149;fill-rule:nonzero" transform="matrix(.9881 0 0 .9881 .141 .09)"/><path d="M8.775 22.713v-3.712H5.063v3.712h3.712Zm1.272-1.829c0 .771.002 1.541-.001 2.312-.002.554-.226.78-.78.781-1.563.002-3.125.002-4.687 0-.555-.001-.78-.227-.781-.781-.003-1.563-.003-3.125 0-4.687.001-.554.226-.78.781-.781 1.562-.002 3.124-.002 4.687 0 .554.001.778.227.78.781.003.791.001 1.583.001 2.375ZM14.361 13.037c.609 0 1.114-.499 1.121-1.108a1.13 1.13 0 0 0-1.124-1.137 1.132 1.132 0 0 0-1.121 1.108 1.13 1.13 0 0 0 1.124 1.137Zm2.371-1.132c.009 1.286-1.061 2.367-2.355 2.382-1.295.015-2.395-1.08-2.39-2.378.006-1.291 1.082-2.366 2.371-2.367 1.288-.001 2.366 1.071 2.374 2.363ZM20.658 19.856a.633.633 0 0 1 .607.63.634.634 0 0 1-.626.611.622.622 0 0 1 .019-1.241ZM23.668 9.438c-.016.327-.325.612-.644.596-.326-.015-.611-.324-.596-.643.016-.327.324-.612.644-.596.326.016.611.324.596.643ZM22.851 27.707h4.796v-4.799l-4.796 4.799Zm6.072-2.88c0 1.113.001 2.227-.001 3.34-.001.592-.218.81-.813.81-2.217.001-4.433-.001-6.649.003-.326.001-.611-.059-.748-.388-.135-.326.014-.575.246-.805 2.26-2.256 4.52-4.516 6.777-6.777.23-.231.479-.379.806-.241.328.138.386.424.384.748-.007 1.104-.002 2.207-.002 3.31Z" style="fill:#22a149;fill-rule:nonzero" transform="matrix(.9881 0 0 .9881 .141 .09)"/></svg>